<svg width="678" height="229" viewBox="0 0 678 229" fill="none" xmlns="http://www.w3.org/2000/svg">
<path d="M31.6489 118.8H34.6089L47.3689 147H43.9689L40.6889 139.6H25.4489L22.1289 147H18.8889L31.6489 118.8ZM39.4489 136.72L33.0889 122.48L26.6889 136.72H39.4489ZM67.0905 147.48C64.8771 147.48 62.8905 147.107 61.1305 146.36C59.3971 145.613 57.9038 144.587 56.6505 143.28C55.4238 141.973 54.4771 140.453 53.8105 138.72C53.1705 136.96 52.8505 135.08 52.8505 133.08V133C52.8505 131.08 53.1838 129.253 53.8505 127.52C54.5438 125.76 55.5038 124.213 56.7305 122.88C57.9571 121.547 59.4238 120.493 61.1305 119.72C62.8638 118.92 64.7838 118.52 66.8905 118.52C68.0638 118.52 69.1305 118.6 70.0905 118.76C71.0771 118.92 71.9838 119.16 72.8105 119.48C73.6638 119.8 74.4505 120.2 75.1705 120.68C75.9172 121.133 76.6371 121.653 77.3305 122.24L75.2905 124.64C74.7571 124.16 74.1971 123.733 73.6105 123.36C73.0238 122.96 72.3838 122.627 71.6905 122.36C71.0238 122.067 70.2771 121.84 69.4505 121.68C68.6505 121.52 67.7571 121.44 66.7705 121.44C65.2238 121.44 63.7971 121.747 62.4905 122.36C61.1838 122.973 60.0638 123.8 59.1305 124.84C58.1971 125.88 57.4638 127.107 56.9305 128.52C56.3971 129.907 56.1305 131.373 56.1305 132.92V133C56.1305 134.68 56.3838 136.227 56.8905 137.64C57.4238 139.053 58.1705 140.28 59.1305 141.32C60.0905 142.36 61.2505 143.173 62.6105 143.76C63.9705 144.347 65.5038 144.64 67.2105 144.64C68.8105 144.64 70.3171 144.373 71.7305 143.84C73.1438 143.28 74.3305 142.613 75.2905 141.84V134.88H66.7705V132.04H78.3305V143.2C77.0238 144.373 75.4105 145.387 73.4905 146.24C71.5971 147.067 69.4638 147.48 67.0905 147.48ZM99.6577 147.48C97.5243 147.48 95.5777 147.093 93.8177 146.32C92.0843 145.547 90.591 144.507 89.3377 143.2C88.0843 141.867 87.111 140.333 86.4177 138.6C85.751 136.84 85.4177 135 85.4177 133.08V133C85.4177 131.08 85.7643 129.24 86.4577 127.48C87.151 125.72 88.1243 124.187 89.3777 122.88C90.631 121.547 92.1377 120.493 93.8977 119.72C95.6577 118.92 97.6043 118.52 99.7377 118.52C101.871 118.52 103.804 118.907 105.538 119.68C107.298 120.453 108.804 121.507 110.058 122.84C111.311 124.147 112.271 125.68 112.938 127.44C113.631 129.173 113.978 131 113.978 132.92V133C113.978 134.92 113.631 136.76 112.938 138.52C112.244 140.28 111.271 141.827 110.018 143.16C108.764 144.467 107.258 145.52 105.498 146.32C103.738 147.093 101.791 147.48 99.6577 147.48ZM99.7377 144.56C101.338 144.56 102.804 144.267 104.138 143.68C105.498 143.067 106.658 142.24 107.618 141.2C108.578 140.16 109.324 138.947 109.858 137.56C110.418 136.173 110.698 134.68 110.698 133.08V133C110.698 131.4 110.418 129.907 109.858 128.52C109.324 127.107 108.564 125.88 107.578 124.84C106.591 123.8 105.418 122.973 104.058 122.36C102.724 121.747 101.258 121.44 99.6577 121.44C98.0577 121.44 96.5777 121.747 95.2177 122.36C93.8843 122.947 92.7377 123.76 91.7777 124.8C90.8177 125.84 90.0577 127.053 89.4977 128.44C88.9643 129.827 88.6977 131.32 88.6977 132.92V133C88.6977 134.6 88.9643 136.107 89.4977 137.52C90.0577 138.907 90.831 140.12 91.8177 141.16C92.8043 142.2 93.9643 143.027 95.2977 143.64C96.6577 144.253 98.1377 144.56 99.7377 144.56ZM121.842 119H133.882C135.615 119 137.149 119.253 138.482 119.76C139.842 120.24 140.962 120.92 141.842 121.8C142.535 122.493 143.069 123.307 143.442 124.24C143.815 125.173 144.002 126.2 144.002 127.32V127.4C144.002 128.573 143.815 129.627 143.442 130.56C143.069 131.467 142.535 132.267 141.842 132.96C141.175 133.627 140.375 134.187 139.442 134.64C138.509 135.067 137.495 135.373 136.402 135.56L145.002 147H141.122L133.002 136.12H125.002V147H121.842V119ZM133.602 133.28C134.642 133.28 135.602 133.147 136.482 132.88C137.362 132.613 138.122 132.24 138.762 131.76C139.402 131.253 139.895 130.653 140.242 129.96C140.615 129.24 140.802 128.427 140.802 127.52V127.44C140.802 125.707 140.175 124.36 138.922 123.4C137.669 122.413 135.909 121.92 133.642 121.92H125.002V133.28H133.602ZM162.308 118.8H165.268L178.028 147H174.628L171.348 139.6H156.108L152.788 147H149.548L162.308 118.8ZM170.108 136.72L163.748 122.48L157.348 136.72H170.108ZM208.302 118.8H211.262L224.022 147H220.622L217.342 139.6H202.102L198.782 147H195.542L208.302 118.8ZM216.102 136.72L209.742 122.48L203.342 136.72H216.102ZM241.576 147H250.936V137.84H264.016V130.56H250.936V127H265.016V119H241.576V147ZM283.481 147.6C288.561 147.6 292.801 145.88 295.841 143.4V130.44H282.281V136.44H287.081V139.24C286.361 139.64 285.481 139.88 283.881 139.88C279.961 139.88 277.201 137.16 277.201 133.2V133.12C277.201 129.32 279.841 126.52 283.481 126.52C285.801 126.52 287.841 127.4 289.681 128.96L294.921 122.64C291.881 120 288.001 118.4 283.201 118.4C274.361 118.4 267.761 124.64 267.761 133V133.08C267.761 141.76 274.761 147.6 283.481 147.6ZM308.061 147.2H317.021L328.381 119H318.061L312.621 134.72L307.181 119H296.701L308.061 147.2ZM342.079 147H352.479C363.799 147 369.479 141.12 369.479 132.84V132.76C369.479 124.48 363.919 119 352.799 119H342.079V147ZM351.439 138.84V127.16H352.999C357.279 127.16 360.039 128.92 360.039 132.96V133.04C360.039 137.08 357.279 138.84 352.999 138.84H351.439ZM369.208 147H379.208L380.648 143.24H390.448L391.928 147H402.088L390.288 118.8H381.008L369.208 147ZM383.008 136.6L385.568 129.8L388.128 136.6H383.008ZM404.44 147H413.8V139.4H416.84C424.4 139.4 429.56 135.8 429.56 129.04V128.96C429.56 122.32 424.48 119 417.04 119H404.44V147ZM413.8 132.72V126.48H416.36C418.84 126.48 420.32 127.52 420.32 129.56V129.64C420.32 131.64 418.72 132.72 416.32 132.72H413.8ZM432.749 147H442.109V139.4H445.149C452.709 139.4 457.869 135.8 457.869 129.04V128.96C457.869 122.32 452.789 119 445.349 119H432.749V147ZM442.109 132.72V126.48H444.669C447.149 126.48 448.629 127.52 448.629 129.56V129.64C448.629 131.64 447.029 132.72 444.629 132.72H442.109ZM482.175 121.92H472.775V119H494.775V121.92H485.375V147H482.175V121.92ZM512.272 118.8H515.232L527.992 147H524.592L521.312 139.6H506.072L502.752 147H499.512L512.272 118.8ZM520.072 136.72L513.712 122.48L507.312 136.72H520.072ZM534.714 119H537.914L548.114 134.28L558.314 119H561.514V147H558.354V124.32L548.154 139.32H547.994L537.794 124.36V147H534.714V119ZM570.64 119H582.56C584.16 119 585.574 119.227 586.8 119.68C588.054 120.107 589.08 120.707 589.88 121.48C591.08 122.733 591.68 124.227 591.68 125.96V126.04C591.68 126.947 591.547 127.76 591.28 128.48C591.04 129.173 590.707 129.787 590.28 130.32C589.854 130.827 589.374 131.267 588.84 131.64C588.334 131.987 587.8 132.28 587.24 132.52C588.067 132.76 588.84 133.08 589.56 133.48C590.307 133.853 590.947 134.307 591.48 134.84C592.014 135.373 592.44 136.013 592.76 136.76C593.08 137.48 593.24 138.32 593.24 139.28V139.36C593.24 140.56 593 141.64 592.52 142.6C592.04 143.533 591.347 144.333 590.44 145C589.56 145.64 588.494 146.133 587.24 146.48C585.987 146.827 584.6 147 583.08 147H570.64V119ZM588.48 126.4C588.48 125.013 587.947 123.907 586.88 123.08C585.814 122.253 584.28 121.84 582.28 121.84H573.76V131.48H582.04C583.96 131.48 585.507 131.067 586.68 130.24C587.88 129.387 588.48 128.133 588.48 126.48V126.4ZM590.04 139.08C590.04 137.56 589.414 136.387 588.16 135.56C586.907 134.707 585.054 134.28 582.6 134.28H573.76V144.16H583.16C585.294 144.16 586.974 143.72 588.2 142.84C589.427 141.96 590.04 140.733 590.04 139.16V139.08ZM613.588 111.36L616.748 112.8L612.148 116.52H609.588L613.588 111.36ZM600.708 119H620.948V121.88H603.868V131.44H619.148V134.32H603.868V144.12H621.148V147H600.708V119ZM628.705 119H631.905L642.105 134.28L652.305 119H655.505V147H652.345V124.32L642.145 139.32H641.985L631.785 124.36V147H628.705V119ZM131.987 167H152.227V169.88H135.147V179.44H150.427V182.32H135.147V192.12H152.427V195H131.987V167ZM159.984 167H162.944L180.584 189.44V167H183.664V195H181.144L163.064 172.04V195H159.984V167ZM202.386 195.4C200.146 195.4 198.092 195.04 196.226 194.32C194.386 193.573 192.626 192.44 190.946 190.92L192.906 188.6C194.372 189.933 195.852 190.933 197.346 191.6C198.839 192.24 200.559 192.56 202.506 192.56C204.399 192.56 205.906 192.12 207.026 191.24C208.172 190.333 208.746 189.187 208.746 187.8V187.72C208.746 187.08 208.639 186.507 208.426 186C208.212 185.467 207.839 184.987 207.306 184.56C206.772 184.133 206.026 183.747 205.066 183.4C204.132 183.053 202.932 182.72 201.466 182.4C199.866 182.053 198.466 181.653 197.266 181.2C196.092 180.747 195.119 180.2 194.346 179.56C193.572 178.92 192.999 178.173 192.626 177.32C192.252 176.467 192.066 175.467 192.066 174.32V174.24C192.066 173.147 192.292 172.133 192.746 171.2C193.199 170.267 193.839 169.467 194.666 168.8C195.492 168.107 196.466 167.573 197.586 167.2C198.706 166.8 199.932 166.6 201.266 166.6C203.319 166.6 205.106 166.893 206.626 167.48C208.172 168.04 209.666 168.893 211.106 170.04L209.266 172.48C207.959 171.413 206.639 170.64 205.306 170.16C203.999 169.68 202.626 169.44 201.186 169.44C199.346 169.44 197.892 169.88 196.826 170.76C195.759 171.613 195.226 172.68 195.226 173.96V174.04C195.226 174.707 195.332 175.307 195.546 175.84C195.759 176.347 196.146 176.827 196.706 177.28C197.266 177.707 198.039 178.107 199.026 178.48C200.012 178.827 201.279 179.16 202.826 179.48C205.946 180.173 208.239 181.133 209.706 182.36C211.199 183.587 211.946 185.267 211.946 187.4V187.48C211.946 188.68 211.706 189.773 211.226 190.76C210.746 191.72 210.079 192.547 209.226 193.24C208.399 193.933 207.399 194.467 206.226 194.84C205.052 195.213 203.772 195.4 202.386 195.4ZM219.852 167H223.012V195H219.852V167ZM232.412 167H235.372L253.012 189.44V167H256.092V195H253.572L235.492 172.04V195H232.412V167ZM275.574 166.8H278.534L291.294 195H287.894L284.614 187.6H269.374L266.054 195H262.814L275.574 166.8ZM283.374 184.72L277.014 170.48L270.614 184.72H283.374ZM323.426 195.48C321.293 195.48 319.346 195.093 317.586 194.32C315.853 193.547 314.36 192.507 313.106 191.2C311.853 189.867 310.88 188.333 310.186 186.6C309.52 184.84 309.186 183 309.186 181.08V181C309.186 179.08 309.533 177.24 310.226 175.48C310.92 173.72 311.893 172.187 313.146 170.88C314.4 169.547 315.906 168.493 317.666 167.72C319.426 166.92 321.373 166.52 323.506 166.52C325.64 166.52 327.573 166.907 329.306 167.68C331.066 168.453 332.573 169.507 333.826 170.84C335.08 172.147 336.04 173.68 336.706 175.44C337.4 177.173 337.746 179 337.746 180.92V181C337.746 182.92 337.4 184.76 336.706 186.52C336.013 188.28 335.04 189.827 333.786 191.16C332.533 192.467 331.026 193.52 329.266 194.32C327.506 195.093 325.56 195.48 323.426 195.48ZM323.506 192.56C325.106 192.56 326.573 192.267 327.906 191.68C329.266 191.067 330.426 190.24 331.386 189.2C332.346 188.16 333.093 186.947 333.626 185.56C334.186 184.173 334.466 182.68 334.466 181.08V181C334.466 179.4 334.186 177.907 333.626 176.52C333.093 175.107 332.333 173.88 331.346 172.84C330.36 171.8 329.186 170.973 327.826 170.36C326.493 169.747 325.026 169.44 323.426 169.44C321.826 169.44 320.346 169.747 318.986 170.36C317.653 170.947 316.506 171.76 315.546 172.8C314.586 173.84 313.826 175.053 313.266 176.44C312.733 177.827 312.466 179.32 312.466 180.92V181C312.466 182.6 312.733 184.107 313.266 185.52C313.826 186.907 314.6 188.12 315.586 189.16C316.573 190.2 317.733 191.027 319.066 191.64C320.426 192.253 321.906 192.56 323.506 192.56ZM383.542 195.84L379.822 192.52C378.622 193.453 377.288 194.187 375.822 194.72C374.355 195.227 372.755 195.48 371.022 195.48C368.888 195.48 366.942 195.093 365.182 194.32C363.448 193.547 361.955 192.507 360.702 191.2C359.448 189.867 358.475 188.333 357.782 186.6C357.115 184.84 356.782 183 356.782 181.08V181C356.782 179.08 357.128 177.24 357.822 175.48C358.515 173.72 359.488 172.187 360.742 170.88C361.995 169.547 363.502 168.493 365.262 167.72C367.022 166.92 368.968 166.52 371.102 166.52C373.235 166.52 375.168 166.907 376.902 167.68C378.662 168.453 380.168 169.507 381.422 170.84C382.675 172.147 383.635 173.68 384.302 175.44C384.995 177.173 385.342 179 385.342 180.92V181C385.342 182.76 385.048 184.44 384.462 186.04C383.875 187.64 383.062 189.08 382.022 190.36L385.702 193.48L383.542 195.84ZM371.102 192.56C372.355 192.56 373.528 192.387 374.622 192.04C375.715 191.667 376.702 191.147 377.582 190.48L372.342 186L374.462 183.64L379.702 188.4C380.475 187.387 381.062 186.267 381.462 185.04C381.862 183.813 382.062 182.493 382.062 181.08V181C382.062 179.4 381.782 177.907 381.222 176.52C380.688 175.107 379.928 173.88 378.942 172.84C377.955 171.8 376.782 170.973 375.422 170.36C374.088 169.747 372.622 169.44 371.022 169.44C369.422 169.44 367.942 169.747 366.582 170.36C365.248 170.947 364.102 171.76 363.142 172.8C362.182 173.84 361.422 175.053 360.862 176.44C360.328 177.827 360.062 179.32 360.062 180.92V181C360.062 182.6 360.328 184.107 360.862 185.52C361.422 186.907 362.195 188.12 363.182 189.16C364.168 190.2 365.328 191.027 366.662 191.64C368.022 192.253 369.502 192.56 371.102 192.56ZM404.406 195.44C402.673 195.44 401.086 195.187 399.646 194.68C398.233 194.147 397.006 193.373 395.966 192.36C394.953 191.32 394.166 190.04 393.606 188.52C393.046 187 392.766 185.253 392.766 183.28V167H395.926V183.08C395.926 186.12 396.686 188.453 398.206 190.08C399.726 191.707 401.819 192.52 404.486 192.52C407.073 192.52 409.126 191.747 410.646 190.2C412.166 188.653 412.926 186.347 412.926 183.28V167H416.086V183.04C416.086 185.093 415.806 186.893 415.246 188.44C414.686 189.987 413.886 191.28 412.846 192.32C411.833 193.36 410.606 194.147 409.166 194.68C407.753 195.187 406.166 195.44 404.406 195.44ZM424.758 167H444.998V169.88H427.918V179.44H443.198V182.32H427.918V192.12H445.198V195H424.758V167ZM465.947 167H486.067V169.92H469.107V179.92H484.267V182.8H469.107V195H465.947V167ZM503.757 166.8H506.717L519.477 195H516.077L512.797 187.6H497.557L494.237 195H490.997L503.757 166.8ZM511.557 184.72L505.197 170.48L498.797 184.72H511.557ZM524.918 192.88L543.038 169.84H525.518V167H547.358V169.12L529.198 192.16H547.358V195H524.918V192.88Z" fill="white"/>
<rect x="408.5" y="4.5" width="196" height="45" rx="8.5" fill="white" stroke="white" stroke-width="3"/>
<path d="M94.1397 11H97.0997L114.74 33.44V11H117.82V39H115.3L97.2197 16.04V39H94.1397V11ZM138.741 39.48C136.608 39.48 134.661 39.0933 132.901 38.32C131.168 37.5467 129.675 36.5067 128.421 35.2C127.168 33.8667 126.195 32.3333 125.501 30.6C124.835 28.84 124.501 27 124.501 25.08V25C124.501 23.08 124.848 21.24 125.541 19.48C126.235 17.72 127.208 16.1867 128.461 14.88C129.715 13.5467 131.221 12.4933 132.981 11.72C134.741 10.92 136.688 10.52 138.821 10.52C140.955 10.52 142.888 10.9067 144.621 11.68C146.381 12.4533 147.888 13.5067 149.141 14.84C150.395 16.1467 151.355 17.68 152.021 19.44C152.715 21.1733 153.061 23 153.061 24.92V25C153.061 26.92 152.715 28.76 152.021 30.52C151.328 32.28 150.355 33.8267 149.101 35.16C147.848 36.4667 146.341 37.52 144.581 38.32C142.821 39.0933 140.875 39.48 138.741 39.48ZM138.821 36.56C140.421 36.56 141.888 36.2667 143.221 35.68C144.581 35.0667 145.741 34.24 146.701 33.2C147.661 32.16 148.408 30.9467 148.941 29.56C149.501 28.1733 149.781 26.68 149.781 25.08V25C149.781 23.4 149.501 21.9067 148.941 20.52C148.408 19.1067 147.648 17.88 146.661 16.84C145.675 15.8 144.501 14.9733 143.141 14.36C141.808 13.7467 140.341 13.44 138.741 13.44C137.141 13.44 135.661 13.7467 134.301 14.36C132.968 14.9467 131.821 15.76 130.861 16.8C129.901 17.84 129.141 19.0533 128.581 20.44C128.048 21.8267 127.781 23.32 127.781 24.92V25C127.781 26.6 128.048 28.1067 128.581 29.52C129.141 30.9067 129.915 32.12 130.901 33.16C131.888 34.2 133.048 35.0267 134.381 35.64C135.741 36.2533 137.221 36.56 138.821 36.56ZM155.685 11H159.205L169.165 35.12L179.165 11H182.565L170.525 39.2H167.725L155.685 11ZM199.444 39.48C197.311 39.48 195.364 39.0933 193.604 38.32C191.871 37.5467 190.378 36.5067 189.124 35.2C187.871 33.8667 186.898 32.3333 186.204 30.6C185.538 28.84 185.204 27 185.204 25.08V25C185.204 23.08 185.551 21.24 186.244 19.48C186.938 17.72 187.911 16.1867 189.164 14.88C190.418 13.5467 191.924 12.4933 193.684 11.72C195.444 10.92 197.391 10.52 199.524 10.52C201.658 10.52 203.591 10.9067 205.324 11.68C207.084 12.4533 208.591 13.5067 209.844 14.84C211.098 16.1467 212.058 17.68 212.724 19.44C213.418 21.1733 213.764 23 213.764 24.92V25C213.764 26.92 213.418 28.76 212.724 30.52C212.031 32.28 211.058 33.8267 209.804 35.16C208.551 36.4667 207.044 37.52 205.284 38.32C203.524 39.0933 201.578 39.48 199.444 39.48ZM199.524 36.56C201.124 36.56 202.591 36.2667 203.924 35.68C205.284 35.0667 206.444 34.24 207.404 33.2C208.364 32.16 209.111 30.9467 209.644 29.56C210.204 28.1733 210.484 26.68 210.484 25.08V25C210.484 23.4 210.204 21.9067 209.644 20.52C209.111 19.1067 208.351 17.88 207.364 16.84C206.378 15.8 205.204 14.9733 203.844 14.36C202.511 13.7467 201.044 13.44 199.444 13.44C197.844 13.44 196.364 13.7467 195.004 14.36C193.671 14.9467 192.524 15.76 191.564 16.8C190.604 17.84 189.844 19.0533 189.284 20.44C188.751 21.8267 188.484 23.32 188.484 24.92V25C188.484 26.6 188.751 28.1067 189.284 29.52C189.844 30.9067 190.618 32.12 191.604 33.16C192.591 34.2 193.751 35.0267 195.084 35.64C196.444 36.2533 197.924 36.56 199.524 36.56ZM245.221 39.48C243.194 39.48 241.328 39.1067 239.621 38.36C237.914 37.6133 236.434 36.6 235.181 35.32C233.928 34.0133 232.941 32.48 232.221 30.72C231.528 28.96 231.181 27.08 231.181 25.08V25C231.181 23.0267 231.528 21.16 232.221 19.4C232.941 17.64 233.928 16.1067 235.181 14.8C236.434 13.4667 237.928 12.4267 239.661 11.68C241.394 10.9067 243.288 10.52 245.341 10.52C246.621 10.52 247.768 10.6267 248.781 10.84C249.821 11.0533 250.781 11.36 251.661 11.76C252.541 12.1333 253.354 12.6 254.101 13.16C254.848 13.6933 255.568 14.2933 256.261 14.96L254.101 17.28C252.901 16.16 251.608 15.24 250.221 14.52C248.861 13.8 247.221 13.44 245.301 13.44C243.754 13.44 242.314 13.7333 240.981 14.32C239.674 14.9067 238.528 15.72 237.541 16.76C236.581 17.8 235.821 19.0267 235.261 20.44C234.728 21.8267 234.461 23.32 234.461 24.92V25C234.461 26.6267 234.728 28.1467 235.261 29.56C235.821 30.9467 236.581 32.16 237.541 33.2C238.528 34.24 239.674 35.0667 240.981 35.68C242.314 36.2667 243.754 36.56 245.301 36.56C247.221 36.56 248.874 36.2133 250.261 35.52C251.648 34.8 253.008 33.8 254.341 32.52L256.421 34.56C255.701 35.3067 254.941 35.9867 254.141 36.6C253.368 37.1867 252.528 37.6933 251.621 38.12C250.714 38.5467 249.741 38.88 248.701 39.12C247.661 39.36 246.501 39.48 245.221 39.48ZM273.152 39.44C271.419 39.44 269.832 39.1867 268.392 38.68C266.979 38.1467 265.752 37.3733 264.712 36.36C263.699 35.32 262.912 34.04 262.352 32.52C261.792 31 261.512 29.2533 261.512 27.28V11H264.672V27.08C264.672 30.12 265.432 32.4533 266.952 34.08C268.472 35.7067 270.566 36.52 273.232 36.52C275.819 36.52 277.872 35.7467 279.392 34.2C280.912 32.6533 281.672 30.3467 281.672 27.28V11H284.832V27.04C284.832 29.0933 284.552 30.8933 283.992 32.44C283.432 33.9867 282.632 35.28 281.592 36.32C280.579 37.36 279.352 38.1467 277.912 38.68C276.499 39.1867 274.912 39.44 273.152 39.44ZM292.304 11H304.344C306.077 11 307.61 11.2533 308.944 11.76C310.304 12.24 311.424 12.92 312.304 13.8C312.997 14.4933 313.53 15.3067 313.904 16.24C314.277 17.1733 314.464 18.2 314.464 19.32V19.4C314.464 20.5733 314.277 21.6267 313.904 22.56C313.53 23.4667 312.997 24.2667 312.304 24.96C311.637 25.6267 310.837 26.1867 309.904 26.64C308.97 27.0667 307.957 27.3733 306.864 27.56L315.464 39H311.584L303.464 28.12H295.464V39H292.304V11ZM304.064 25.28C305.104 25.28 306.064 25.1467 306.944 24.88C307.824 24.6133 308.584 24.24 309.224 23.76C309.864 23.2533 310.357 22.6533 310.704 21.96C311.077 21.24 311.264 20.4267 311.264 19.52V19.44C311.264 17.7067 310.637 16.36 309.384 15.4C308.13 14.4133 306.37 13.92 304.104 13.92H295.464V25.28H304.064ZM330.81 39.4C328.57 39.4 326.517 39.04 324.65 38.32C322.81 37.5733 321.05 36.44 319.37 34.92L321.33 32.6C322.797 33.9333 324.277 34.9333 325.77 35.6C327.263 36.24 328.983 36.56 330.93 36.56C332.823 36.56 334.33 36.12 335.45 35.24C336.597 34.3333 337.17 33.1867 337.17 31.8V31.72C337.17 31.08 337.063 30.5067 336.85 30C336.637 29.4667 336.263 28.9867 335.73 28.56C335.197 28.1333 334.45 27.7467 333.49 27.4C332.557 27.0533 331.357 26.72 329.89 26.4C328.29 26.0533 326.89 25.6533 325.69 25.2C324.517 24.7467 323.543 24.2 322.77 23.56C321.997 22.92 321.423 22.1733 321.05 21.32C320.677 20.4667 320.49 19.4667 320.49 18.32V18.24C320.49 17.1467 320.717 16.1333 321.17 15.2C321.623 14.2667 322.263 13.4667 323.09 12.8C323.917 12.1067 324.89 11.5733 326.01 11.2C327.13 10.8 328.357 10.6 329.69 10.6C331.743 10.6 333.53 10.8933 335.05 11.48C336.597 12.04 338.09 12.8933 339.53 14.04L337.69 16.48C336.383 15.4133 335.063 14.64 333.73 14.16C332.423 13.68 331.05 13.44 329.61 13.44C327.77 13.44 326.317 13.88 325.25 14.76C324.183 15.6133 323.65 16.68 323.65 17.96V18.04C323.65 18.7067 323.757 19.3067 323.97 19.84C324.183 20.3467 324.57 20.8267 325.13 21.28C325.69 21.7067 326.463 22.1067 327.45 22.48C328.437 22.8267 329.703 23.16 331.25 23.48C334.37 24.1733 336.663 25.1333 338.13 26.36C339.623 27.5867 340.37 29.2667 340.37 31.4V31.48C340.37 32.68 340.13 33.7733 339.65 34.76C339.17 35.72 338.503 36.5467 337.65 37.24C336.823 37.9333 335.823 38.4667 334.65 38.84C333.477 39.2133 332.197 39.4 330.81 39.4ZM359.796 39.48C357.663 39.48 355.716 39.0933 353.956 38.32C352.223 37.5467 350.729 36.5067 349.476 35.2C348.223 33.8667 347.249 32.3333 346.556 30.6C345.889 28.84 345.556 27 345.556 25.08V25C345.556 23.08 345.903 21.24 346.596 19.48C347.289 17.72 348.263 16.1867 349.516 14.88C350.769 13.5467 352.276 12.4933 354.036 11.72C355.796 10.92 357.743 10.52 359.876 10.52C362.009 10.52 363.943 10.9067 365.676 11.68C367.436 12.4533 368.943 13.5067 370.196 14.84C371.449 16.1467 372.409 17.68 373.076 19.44C373.769 21.1733 374.116 23 374.116 24.92V25C374.116 26.92 373.769 28.76 373.076 30.52C372.383 32.28 371.409 33.8267 370.156 35.16C368.903 36.4667 367.396 37.52 365.636 38.32C363.876 39.0933 361.929 39.48 359.796 39.48ZM359.876 36.56C361.476 36.56 362.943 36.2667 364.276 35.68C365.636 35.0667 366.796 34.24 367.756 33.2C368.716 32.16 369.463 30.9467 369.996 29.56C370.556 28.1733 370.836 26.68 370.836 25.08V25C370.836 23.4 370.556 21.9067 369.996 20.52C369.463 19.1067 368.703 17.88 367.716 16.84C366.729 15.8 365.556 14.9733 364.196 14.36C362.863 13.7467 361.396 13.44 359.796 13.44C358.196 13.44 356.716 13.7467 355.356 14.36C354.023 14.9467 352.876 15.76 351.916 16.8C350.956 17.84 350.196 19.0533 349.636 20.44C349.103 21.8267 348.836 23.32 348.836 24.92V25C348.836 26.6 349.103 28.1067 349.636 29.52C350.196 30.9067 350.969 32.12 351.956 33.16C352.943 34.2 354.103 35.0267 355.436 35.64C356.796 36.2533 358.276 36.56 359.876 36.56Z" fill="white"/>
<path d="M425.529 13.5H444.184V18.4H430.919V23.615H442.609V28.515H430.919V38H425.529V13.5ZM460.293 38.42C458.379 38.42 456.629 38.105 455.043 37.475C453.479 36.845 452.126 35.97 450.983 34.85C449.863 33.73 448.988 32.4 448.358 30.86C447.728 29.32 447.413 27.64 447.413 25.82V25.75C447.413 24 447.728 22.3667 448.358 20.85C449.011 19.31 449.909 17.9683 451.053 16.825C452.196 15.6583 453.549 14.7483 455.113 14.095C456.676 13.4183 458.391 13.08 460.258 13.08C461.354 13.08 462.346 13.1617 463.233 13.325C464.143 13.465 464.983 13.675 465.753 13.955C466.523 14.235 467.246 14.585 467.923 15.005C468.599 15.425 469.253 15.9033 469.883 16.44L466.488 20.535C466.021 20.1383 465.554 19.7883 465.088 19.485C464.621 19.1817 464.131 18.925 463.618 18.715C463.128 18.505 462.591 18.3417 462.008 18.225C461.424 18.1083 460.783 18.05 460.083 18.05C459.103 18.05 458.181 18.26 457.318 18.68C456.478 19.0767 455.731 19.625 455.078 20.325C454.448 21.0017 453.946 21.8067 453.573 22.74C453.223 23.65 453.048 24.63 453.048 25.68V25.75C453.048 26.87 453.223 27.9083 453.573 28.865C453.946 29.7983 454.459 30.615 455.113 31.315C455.789 32.015 456.571 32.5633 457.458 32.96C458.368 33.3333 459.371 33.52 460.468 33.52C462.474 33.52 464.166 33.03 465.543 32.05V28.55H460.118V23.895H470.758V34.535C469.498 35.6083 467.993 36.53 466.243 37.3C464.516 38.0467 462.533 38.42 460.293 38.42ZM472.955 13.5H478.905L485.31 30.755L491.715 13.5H497.525L487.62 38.175H482.86L472.955 13.5ZM510.226 13.5H515.616V33.1H527.831V38H510.226V13.5ZM532.141 13.5H537.531V38H532.141V13.5ZM541.554 13.5H547.504L553.909 30.755L560.314 13.5H566.124L556.219 38.175H551.459L541.554 13.5ZM569.904 13.5H588.384V18.295H575.259V23.265H586.809V28.06H575.259V33.205H588.559V38H569.904V13.5Z" fill="#314486"/>
</svg>
