<svg width="638" height="85" viewBox="0 0 638 85" fill="none" xmlns="http://www.w3.org/2000/svg">
<path d="M13.6489 7.8H16.6089L29.3689 36H25.9689L22.6889 28.6H7.44892L4.12892 36H0.888918L13.6489 7.8ZM21.4489 25.72L15.0889 11.48L8.68892 25.72H21.4489ZM49.0905 36.48C46.8771 36.48 44.8905 36.1067 43.1305 35.36C41.3971 34.6133 39.9038 33.5867 38.6505 32.28C37.4238 30.9733 36.4771 29.4533 35.8105 27.72C35.1705 25.96 34.8505 24.08 34.8505 22.08V22C34.8505 20.08 35.1838 18.2533 35.8505 16.52C36.5438 14.76 37.5038 13.2133 38.7305 11.88C39.9571 10.5467 41.4238 9.49333 43.1305 8.72C44.8638 7.92 46.7838 7.52 48.8905 7.52C50.0638 7.52 51.1305 7.6 52.0905 7.76C53.0771 7.92 53.9838 8.16 54.8105 8.48C55.6638 8.8 56.4505 9.2 57.1705 9.68C57.9172 10.1333 58.6371 10.6533 59.3305 11.24L57.2905 13.64C56.7571 13.16 56.1971 12.7333 55.6105 12.36C55.0238 11.96 54.3838 11.6267 53.6905 11.36C53.0238 11.0667 52.2771 10.84 51.4505 10.68C50.6505 10.52 49.7571 10.44 48.7705 10.44C47.2238 10.44 45.7971 10.7467 44.4905 11.36C43.1838 11.9733 42.0638 12.8 41.1305 13.84C40.1971 14.88 39.4638 16.1067 38.9305 17.52C38.3971 18.9067 38.1305 20.3733 38.1305 21.92V22C38.1305 23.68 38.3838 25.2267 38.8905 26.64C39.4238 28.0533 40.1705 29.28 41.1305 30.32C42.0905 31.36 43.2505 32.1733 44.6105 32.76C45.9705 33.3467 47.5038 33.64 49.2105 33.64C50.8105 33.64 52.3171 33.3733 53.7305 32.84C55.1438 32.28 56.3305 31.6133 57.2905 30.84V23.88H48.7705V21.04H60.3305V32.2C59.0238 33.3733 57.4105 34.3867 55.4905 35.24C53.5971 36.0667 51.4638 36.48 49.0905 36.48ZM81.6577 36.48C79.5243 36.48 77.5777 36.0933 75.8177 35.32C74.0843 34.5467 72.591 33.5067 71.3377 32.2C70.0843 30.8667 69.111 29.3333 68.4177 27.6C67.751 25.84 67.4177 24 67.4177 22.08V22C67.4177 20.08 67.7643 18.24 68.4577 16.48C69.151 14.72 70.1243 13.1867 71.3777 11.88C72.631 10.5467 74.1377 9.49333 75.8977 8.72C77.6577 7.92 79.6043 7.52 81.7377 7.52C83.871 7.52 85.8043 7.90667 87.5377 8.68C89.2977 9.45333 90.8043 10.5067 92.0577 11.84C93.311 13.1467 94.271 14.68 94.9377 16.44C95.631 18.1733 95.9777 20 95.9777 21.92V22C95.9777 23.92 95.631 25.76 94.9377 27.52C94.2443 29.28 93.271 30.8267 92.0177 32.16C90.7643 33.4667 89.2577 34.52 87.4977 35.32C85.7377 36.0933 83.791 36.48 81.6577 36.48ZM81.7377 33.56C83.3377 33.56 84.8043 33.2667 86.1377 32.68C87.4977 32.0667 88.6577 31.24 89.6177 30.2C90.5777 29.16 91.3243 27.9467 91.8577 26.56C92.4177 25.1733 92.6977 23.68 92.6977 22.08V22C92.6977 20.4 92.4177 18.9067 91.8577 17.52C91.3243 16.1067 90.5643 14.88 89.5777 13.84C88.591 12.8 87.4177 11.9733 86.0577 11.36C84.7243 10.7467 83.2577 10.44 81.6577 10.44C80.0577 10.44 78.5777 10.7467 77.2177 11.36C75.8843 11.9467 74.7377 12.76 73.7777 13.8C72.8177 14.84 72.0577 16.0533 71.4977 17.44C70.9643 18.8267 70.6977 20.32 70.6977 21.92V22C70.6977 23.6 70.9643 25.1067 71.4977 26.52C72.0577 27.9067 72.831 29.12 73.8177 30.16C74.8043 31.2 75.9643 32.0267 77.2977 32.64C78.6577 33.2533 80.1377 33.56 81.7377 33.56ZM103.842 8H115.882C117.615 8 119.149 8.25333 120.482 8.76C121.842 9.24 122.962 9.92 123.842 10.8C124.535 11.4933 125.069 12.3067 125.442 13.24C125.815 14.1733 126.002 15.2 126.002 16.32V16.4C126.002 17.5733 125.815 18.6267 125.442 19.56C125.069 20.4667 124.535 21.2667 123.842 21.96C123.175 22.6267 122.375 23.1867 121.442 23.64C120.509 24.0667 119.495 24.3733 118.402 24.56L127.002 36H123.122L115.002 25.12H107.002V36H103.842V8ZM115.602 22.28C116.642 22.28 117.602 22.1467 118.482 21.88C119.362 21.6133 120.122 21.24 120.762 20.76C121.402 20.2533 121.895 19.6533 122.242 18.96C122.615 18.24 122.802 17.4267 122.802 16.52V16.44C122.802 14.7067 122.175 13.36 120.922 12.4C119.669 11.4133 117.909 10.92 115.642 10.92H107.002V22.28H115.602ZM144.308 7.8H147.268L160.028 36H156.628L153.348 28.6H138.108L134.788 36H131.548L144.308 7.8ZM152.108 25.72L145.748 11.48L139.348 25.72H152.108ZM190.302 7.8H193.262L206.022 36H202.622L199.342 28.6H184.102L180.782 36H177.542L190.302 7.8ZM198.102 25.72L191.742 11.48L185.342 25.72H198.102ZM223.576 36H232.936V26.84H246.016V19.56H232.936V16H247.016V8H223.576V36ZM265.481 36.6C270.561 36.6 274.801 34.88 277.841 32.4V19.44H264.281V25.44H269.081V28.24C268.361 28.64 267.481 28.88 265.881 28.88C261.961 28.88 259.201 26.16 259.201 22.2V22.12C259.201 18.32 261.841 15.52 265.481 15.52C267.801 15.52 269.841 16.4 271.681 17.96L276.921 11.64C273.881 9 270.001 7.4 265.201 7.4C256.361 7.4 249.761 13.64 249.761 22V22.08C249.761 30.76 256.761 36.6 265.481 36.6ZM290.061 36.2H299.021L310.381 8H300.061L294.621 23.72L289.181 8H278.701L290.061 36.2ZM324.079 36H334.479C345.799 36 351.479 30.12 351.479 21.84V21.76C351.479 13.48 345.919 8 334.799 8H324.079V36ZM333.439 27.84V16.16H334.999C339.279 16.16 342.039 17.92 342.039 21.96V22.04C342.039 26.08 339.279 27.84 334.999 27.84H333.439ZM351.208 36H361.208L362.648 32.24H372.448L373.928 36H384.088L372.288 7.8H363.008L351.208 36ZM365.008 25.6L367.568 18.8L370.128 25.6H365.008ZM386.44 36H395.8V28.4H398.84C406.4 28.4 411.56 24.8 411.56 18.04V17.96C411.56 11.32 406.48 8 399.04 8H386.44V36ZM395.8 21.72V15.48H398.36C400.84 15.48 402.32 16.52 402.32 18.56V18.64C402.32 20.64 400.72 21.72 398.32 21.72H395.8ZM414.749 36H424.109V28.4H427.149C434.709 28.4 439.869 24.8 439.869 18.04V17.96C439.869 11.32 434.789 8 427.349 8H414.749V36ZM424.109 21.72V15.48H426.669C429.149 15.48 430.629 16.52 430.629 18.56V18.64C430.629 20.64 429.029 21.72 426.629 21.72H424.109ZM464.175 10.92H454.775V8H476.775V10.92H467.375V36H464.175V10.92ZM494.272 7.8H497.232L509.992 36H506.592L503.312 28.6H488.072L484.752 36H481.512L494.272 7.8ZM502.072 25.72L495.712 11.48L489.312 25.72H502.072ZM516.714 8H519.914L530.114 23.28L540.314 8H543.514V36H540.354V13.32L530.154 28.32H529.994L519.794 13.36V36H516.714V8ZM552.64 8H564.56C566.16 8 567.574 8.22667 568.8 8.68C570.054 9.10666 571.08 9.70667 571.88 10.48C573.08 11.7333 573.68 13.2267 573.68 14.96V15.04C573.68 15.9467 573.547 16.76 573.28 17.48C573.04 18.1733 572.707 18.7867 572.28 19.32C571.854 19.8267 571.374 20.2667 570.84 20.64C570.334 20.9867 569.8 21.28 569.24 21.52C570.067 21.76 570.84 22.08 571.56 22.48C572.307 22.8533 572.947 23.3067 573.48 23.84C574.014 24.3733 574.44 25.0133 574.76 25.76C575.08 26.48 575.24 27.32 575.24 28.28V28.36C575.24 29.56 575 30.64 574.52 31.6C574.04 32.5333 573.347 33.3333 572.44 34C571.56 34.64 570.494 35.1333 569.24 35.48C567.987 35.8267 566.6 36 565.08 36H552.64V8ZM570.48 15.4C570.48 14.0133 569.947 12.9067 568.88 12.08C567.814 11.2533 566.28 10.84 564.28 10.84H555.76V20.48H564.04C565.96 20.48 567.507 20.0667 568.68 19.24C569.88 18.3867 570.48 17.1333 570.48 15.48V15.4ZM572.04 28.08C572.04 26.56 571.414 25.3867 570.16 24.56C568.907 23.7067 567.054 23.28 564.6 23.28H555.76V33.16H565.16C567.294 33.16 568.974 32.72 570.2 31.84C571.427 30.96 572.04 29.7333 572.04 28.16V28.08ZM595.588 0.359999L598.748 1.8L594.148 5.52H591.588L595.588 0.359999ZM582.708 8H602.948V10.88H585.868V20.44H601.148V23.32H585.868V33.12H603.148V36H582.708V8ZM610.705 8H613.905L624.105 23.28L634.305 8H637.505V36H634.345V13.32L624.145 28.32H623.985L613.785 13.36V36H610.705V8ZM113.987 56H134.227V58.88H117.147V68.44H132.427V71.32H117.147V81.12H134.427V84H113.987V56ZM141.984 56H144.944L162.584 78.44V56H165.664V84H163.144L145.064 61.04V84H141.984V56ZM184.386 84.4C182.146 84.4 180.092 84.04 178.226 83.32C176.386 82.5733 174.626 81.44 172.946 79.92L174.906 77.6C176.372 78.9333 177.852 79.9333 179.346 80.6C180.839 81.24 182.559 81.56 184.506 81.56C186.399 81.56 187.906 81.12 189.026 80.24C190.172 79.3333 190.746 78.1867 190.746 76.8V76.72C190.746 76.08 190.639 75.5067 190.426 75C190.212 74.4667 189.839 73.9867 189.306 73.56C188.772 73.1333 188.026 72.7467 187.066 72.4C186.132 72.0533 184.932 71.72 183.466 71.4C181.866 71.0533 180.466 70.6533 179.266 70.2C178.092 69.7467 177.119 69.2 176.346 68.56C175.572 67.92 174.999 67.1733 174.626 66.32C174.252 65.4667 174.066 64.4667 174.066 63.32V63.24C174.066 62.1467 174.292 61.1333 174.746 60.2C175.199 59.2667 175.839 58.4667 176.666 57.8C177.492 57.1067 178.466 56.5733 179.586 56.2C180.706 55.8 181.932 55.6 183.266 55.6C185.319 55.6 187.106 55.8933 188.626 56.48C190.172 57.04 191.666 57.8933 193.106 59.04L191.266 61.48C189.959 60.4133 188.639 59.64 187.306 59.16C185.999 58.68 184.626 58.44 183.186 58.44C181.346 58.44 179.892 58.88 178.826 59.76C177.759 60.6133 177.226 61.68 177.226 62.96V63.04C177.226 63.7067 177.332 64.3067 177.546 64.84C177.759 65.3467 178.146 65.8267 178.706 66.28C179.266 66.7067 180.039 67.1067 181.026 67.48C182.012 67.8267 183.279 68.16 184.826 68.48C187.946 69.1733 190.239 70.1333 191.706 71.36C193.199 72.5867 193.946 74.2667 193.946 76.4V76.48C193.946 77.68 193.706 78.7733 193.226 79.76C192.746 80.72 192.079 81.5467 191.226 82.24C190.399 82.9333 189.399 83.4667 188.226 83.84C187.052 84.2133 185.772 84.4 184.386 84.4ZM201.852 56H205.012V84H201.852V56ZM214.412 56H217.372L235.012 78.44V56H238.092V84H235.572L217.492 61.04V84H214.412V56ZM257.574 55.8H260.534L273.294 84H269.894L266.614 76.6H251.374L248.054 84H244.814L257.574 55.8ZM265.374 73.72L259.014 59.48L252.614 73.72H265.374ZM305.426 84.48C303.293 84.48 301.346 84.0933 299.586 83.32C297.853 82.5467 296.36 81.5067 295.106 80.2C293.853 78.8667 292.88 77.3333 292.186 75.6C291.52 73.84 291.186 72 291.186 70.08V70C291.186 68.08 291.533 66.24 292.226 64.48C292.92 62.72 293.893 61.1867 295.146 59.88C296.4 58.5467 297.906 57.4933 299.666 56.72C301.426 55.92 303.373 55.52 305.506 55.52C307.64 55.52 309.573 55.9067 311.306 56.68C313.066 57.4533 314.573 58.5067 315.826 59.84C317.08 61.1467 318.04 62.68 318.706 64.44C319.4 66.1733 319.746 68 319.746 69.92V70C319.746 71.92 319.4 73.76 318.706 75.52C318.013 77.28 317.04 78.8267 315.786 80.16C314.533 81.4667 313.026 82.52 311.266 83.32C309.506 84.0933 307.56 84.48 305.426 84.48ZM305.506 81.56C307.106 81.56 308.573 81.2667 309.906 80.68C311.266 80.0667 312.426 79.24 313.386 78.2C314.346 77.16 315.093 75.9467 315.626 74.56C316.186 73.1733 316.466 71.68 316.466 70.08V70C316.466 68.4 316.186 66.9067 315.626 65.52C315.093 64.1067 314.333 62.88 313.346 61.84C312.36 60.8 311.186 59.9733 309.826 59.36C308.493 58.7467 307.026 58.44 305.426 58.44C303.826 58.44 302.346 58.7467 300.986 59.36C299.653 59.9467 298.506 60.76 297.546 61.8C296.586 62.84 295.826 64.0533 295.266 65.44C294.733 66.8267 294.466 68.32 294.466 69.92V70C294.466 71.6 294.733 73.1067 295.266 74.52C295.826 75.9067 296.6 77.12 297.586 78.16C298.573 79.2 299.733 80.0267 301.066 80.64C302.426 81.2533 303.906 81.56 305.506 81.56ZM365.542 84.84L361.822 81.52C360.622 82.4533 359.288 83.1867 357.822 83.72C356.355 84.2267 354.755 84.48 353.022 84.48C350.888 84.48 348.942 84.0933 347.182 83.32C345.448 82.5467 343.955 81.5067 342.702 80.2C341.448 78.8667 340.475 77.3333 339.782 75.6C339.115 73.84 338.782 72 338.782 70.08V70C338.782 68.08 339.128 66.24 339.822 64.48C340.515 62.72 341.488 61.1867 342.742 59.88C343.995 58.5467 345.502 57.4933 347.262 56.72C349.022 55.92 350.968 55.52 353.102 55.52C355.235 55.52 357.168 55.9067 358.902 56.68C360.662 57.4533 362.168 58.5067 363.422 59.84C364.675 61.1467 365.635 62.68 366.302 64.44C366.995 66.1733 367.342 68 367.342 69.92V70C367.342 71.76 367.048 73.44 366.462 75.04C365.875 76.64 365.062 78.08 364.022 79.36L367.702 82.48L365.542 84.84ZM353.102 81.56C354.355 81.56 355.528 81.3867 356.622 81.04C357.715 80.6667 358.702 80.1467 359.582 79.48L354.342 75L356.462 72.64L361.702 77.4C362.475 76.3867 363.062 75.2667 363.462 74.04C363.862 72.8133 364.062 71.4933 364.062 70.08V70C364.062 68.4 363.782 66.9067 363.222 65.52C362.688 64.1067 361.928 62.88 360.942 61.84C359.955 60.8 358.782 59.9733 357.422 59.36C356.088 58.7467 354.622 58.44 353.022 58.44C351.422 58.44 349.942 58.7467 348.582 59.36C347.248 59.9467 346.102 60.76 345.142 61.8C344.182 62.84 343.422 64.0533 342.862 65.44C342.328 66.8267 342.062 68.32 342.062 69.92V70C342.062 71.6 342.328 73.1067 342.862 74.52C343.422 75.9067 344.195 77.12 345.182 78.16C346.168 79.2 347.328 80.0267 348.662 80.64C350.022 81.2533 351.502 81.56 353.102 81.56ZM386.406 84.44C384.673 84.44 383.086 84.1867 381.646 83.68C380.233 83.1467 379.006 82.3733 377.966 81.36C376.953 80.32 376.166 79.04 375.606 77.52C375.046 76 374.766 74.2533 374.766 72.28V56H377.926V72.08C377.926 75.12 378.686 77.4533 380.206 79.08C381.726 80.7067 383.819 81.52 386.486 81.52C389.073 81.52 391.126 80.7467 392.646 79.2C394.166 77.6533 394.926 75.3467 394.926 72.28V56H398.086V72.04C398.086 74.0933 397.806 75.8933 397.246 77.44C396.686 78.9867 395.886 80.28 394.846 81.32C393.833 82.36 392.606 83.1467 391.166 83.68C389.753 84.1867 388.166 84.44 386.406 84.44ZM406.758 56H426.998V58.88H409.918V68.44H425.198V71.32H409.918V81.12H427.198V84H406.758V56ZM447.947 56H468.067V58.92H451.107V68.92H466.267V71.8H451.107V84H447.947V56ZM485.757 55.8H488.717L501.477 84H498.077L494.797 76.6H479.557L476.237 84H472.997L485.757 55.8ZM493.557 73.72L487.197 59.48L480.797 73.72H493.557ZM506.918 81.88L525.038 58.84H507.518V56H529.358V58.12L511.198 81.16H529.358V84H506.918V81.88Z" fill="white"/>
</svg>
