<?xml version="1.0" encoding="utf-8"?>
<!-- Generator: Adobe Illustrator 23.1.0, SVG Export Plug-In . SVG Version: 6.00 Build 0)  -->
<svg version="1.1" id="Camada_1" xmlns="http://www.w3.org/2000/svg" xmlns:xlink="http://www.w3.org/1999/xlink" x="0px" y="0px"
	 viewBox="0 0 28.7 35.6" style="enable-background:new 0 0 28.7 35.6;" xml:space="preserve">
<style type="text/css">
	.st0{fill:#FFFFFF;}
</style>
<title>left, arrow, back</title>
<g>
	<g>
		<path class="st0" d="M1.5,34.6c-0.2,0-0.3-0.1-0.4-0.2C1,34.3,1,34.2,1,34.1V1.5C1,1.3,1.1,1.1,1.3,1c0.1,0,0.1,0,0.2,0
			c0,0,0,0,0,0c0.1,0,0.2,0,0.3,0.1l25.7,16.3c0.1,0.1,0.2,0.2,0.2,0.3c0,0.1,0,0.3-0.1,0.4c0,0.1-0.1,0.1-0.1,0.2L1.8,34.5
			C1.7,34.5,1.6,34.6,1.5,34.6z"/>
		<path d="M2,2.4l24.3,15.4L2,33.2L2,2.4 M1.5,0C1.5,0,1.5,0,1.5,0C1.2,0,1,0.1,0.8,0.2C0.3,0.5,0,1,0,1.5v32.6
			c0,0.3,0.1,0.6,0.2,0.8c0.3,0.4,0.8,0.7,1.3,0.7c0.3,0,0.6-0.1,0.8-0.2L28,19.1c0.2-0.1,0.3-0.3,0.4-0.4c0.5-0.7,0.3-1.6-0.4-2.1
			L2.3,0.2C2.1,0.1,1.8,0,1.5,0L1.5,0z"/>
	</g>
</g>
</svg>
