<?xml version="1.0" encoding="utf-8"?>
<!-- Generator: Adobe Illustrator 22.1.0, SVG Export Plug-In . SVG Version: 6.00 Build 0)  -->
<svg version="1.1" id="Layer_1" xmlns="http://www.w3.org/2000/svg" xmlns:xlink="http://www.w3.org/1999/xlink" x="0px" y="0px"
	 viewBox="0 0 597.5 269.7" style="enable-background:new 0 0 597.5 269.7;" xml:space="preserve">
<style type="text/css">
	.st0{fill:#008FD0;}
	.st1{fill-rule:evenodd;clip-rule:evenodd;fill:#008FD0;}
	.st2{fill:#8E8F90;}
	.st3{fill-rule:evenodd;clip-rule:evenodd;fill:#8E8F90;}
	.st4{fill:#060505;}
	.st5{fill-rule:evenodd;clip-rule:evenodd;fill:#060505;}
	.st6{fill:#FFFFFF;}
	.st7{fill-rule:evenodd;clip-rule:evenodd;fill:#FFFFFF;}
	.st8{fill:#223B75;}
	.st9{fill-rule:evenodd;clip-rule:evenodd;fill:#223B75;}
	.st10{fill:#138BCB;}
	.st11{fill-rule:evenodd;clip-rule:evenodd;fill:#138BCB;}
	.st12{fill:#9FA1A3;}
</style>
<g>
	<g>
		<g>
			<path class="st8" d="M333.4,106.8h8.5c1.7,0,3.3,0.3,4.7,0.8c1.4,0.6,2.7,1.3,3.7,2.3c1,1,1.8,2.1,2.4,3.4
				c0.6,1.3,0.8,2.7,0.8,4.3v0.1c0,1.5-0.3,3-0.8,4.3c-0.6,1.3-1.4,2.5-2.4,3.5c-1,1-2.3,1.7-3.7,2.3c-1.4,0.6-3,0.8-4.7,0.8h-8.5
				V106.8z M341.9,124.3c1,0,1.9-0.2,2.7-0.5c0.8-0.3,1.5-0.8,2.1-1.3c0.6-0.6,1-1.3,1.3-2.1c0.3-0.8,0.5-1.7,0.5-2.6v-0.1
				c0-1-0.2-1.8-0.5-2.6c-0.3-0.8-0.8-1.5-1.3-2.1c-0.6-0.6-1.3-1-2.1-1.4c-0.8-0.3-1.7-0.5-2.7-0.5h-3.7v13.2H341.9z"/>
			<path class="st8" d="M358,106.8h4.8v21.8H358V106.8z"/>
			<path class="st8" d="M368.2,106.8h10c2.8,0,4.9,0.7,6.4,2.2c1.2,1.2,1.9,2.9,1.9,5v0.1c0,1.8-0.4,3.2-1.3,4.3
				c-0.9,1.1-2,1.9-3.4,2.4l5.3,7.8h-5.6l-4.7-7h-0.1H373v7h-4.8V106.8z M377.9,117.4c1.2,0,2.1-0.3,2.7-0.8c0.6-0.6,1-1.3,1-2.2
				v-0.1c0-1-0.3-1.8-1-2.3c-0.7-0.5-1.6-0.8-2.8-0.8H373v6.3H377.9z"/>
			<path class="st8" d="M390.8,106.8h16.4v4.3h-11.7v4.4h10.3v4.3h-10.3v4.6h11.8v4.3h-16.6V106.8z"/>
			<path class="st8" d="M416.7,111.2h-6.6v-4.4h18.1v4.4h-6.6v17.4h-4.8V111.2z"/>
			<path class="st8" d="M442.5,129c-1.7,0-3.2-0.3-4.6-0.9c-1.4-0.6-2.6-1.4-3.7-2.4c-1-1-1.8-2.2-2.4-3.6c-0.6-1.4-0.9-2.8-0.9-4.4
				v-0.1c0-1.6,0.3-3,0.9-4.4c0.6-1.4,1.4-2.6,2.4-3.6s2.3-1.8,3.7-2.4s3-0.9,4.7-0.9s3.2,0.3,4.6,0.9c1.4,0.6,2.6,1.4,3.7,2.4
				s1.8,2.2,2.4,3.6c0.6,1.4,0.9,2.8,0.9,4.4v0.1c0,1.6-0.3,3-0.9,4.4c-0.6,1.4-1.4,2.6-2.4,3.6c-1,1-2.3,1.8-3.7,2.4
				C445.7,128.7,444.1,129,442.5,129z M442.5,124.5c1,0,1.8-0.2,2.7-0.5c0.8-0.4,1.5-0.8,2.1-1.5c0.6-0.6,1-1.3,1.3-2.2
				c0.3-0.8,0.5-1.7,0.5-2.6v-0.1c0-0.9-0.2-1.8-0.5-2.6c-0.3-0.8-0.8-1.6-1.4-2.2c-0.6-0.6-1.3-1.1-2.1-1.5
				c-0.8-0.4-1.7-0.5-2.7-0.5c-1,0-1.9,0.2-2.7,0.5c-0.8,0.4-1.5,0.8-2.1,1.5c-0.6,0.6-1,1.3-1.3,2.2c-0.3,0.8-0.5,1.7-0.5,2.6v0.1
				c0,0.9,0.2,1.8,0.5,2.6c0.3,0.8,0.8,1.6,1.4,2.2c0.6,0.6,1.3,1.1,2.1,1.5C440.7,124.4,441.5,124.5,442.5,124.5z"/>
			<path class="st8" d="M458.4,106.8h10c2.8,0,4.9,0.7,6.4,2.2c1.2,1.2,1.9,2.9,1.9,5v0.1c0,1.8-0.4,3.2-1.3,4.3
				c-0.9,1.1-2,1.9-3.4,2.4l5.3,7.8h-5.6l-4.7-7h-0.1h-3.7v7h-4.8V106.8z M468,117.4c1.2,0,2.1-0.3,2.7-0.8c0.6-0.6,1-1.3,1-2.2
				v-0.1c0-1-0.3-1.8-1-2.3c-0.7-0.5-1.6-0.8-2.8-0.8h-4.8v6.3H468z"/>
			<path class="st8" d="M481.1,106.8h4.8v21.8h-4.8V106.8z"/>
			<path class="st8" d="M498.9,106.6h4.4l9.4,22h-5l-2-4.9h-9.2l-2,4.9h-4.9L498.9,106.6z M503.9,119.5l-2.9-7.1l-2.9,7.1H503.9z"/>
			<path class="st8" d="M333.4,141.2h8.5c1.7,0,3.3,0.3,4.7,0.8c1.4,0.6,2.7,1.3,3.7,2.3c1,1,1.8,2.1,2.4,3.4
				c0.6,1.3,0.8,2.7,0.8,4.3v0.1c0,1.5-0.3,3-0.8,4.3c-0.6,1.3-1.4,2.5-2.4,3.5c-1,1-2.3,1.7-3.7,2.3c-1.4,0.6-3,0.8-4.7,0.8h-8.5
				V141.2z M341.9,158.7c1,0,1.9-0.2,2.7-0.5c0.8-0.3,1.5-0.8,2.1-1.3c0.6-0.6,1-1.3,1.3-2.1c0.3-0.8,0.5-1.7,0.5-2.7v-0.1
				c0-1-0.2-1.8-0.5-2.6c-0.3-0.8-0.8-1.5-1.3-2.1c-0.6-0.6-1.3-1-2.1-1.4c-0.8-0.3-1.7-0.5-2.7-0.5h-3.7v13.2H341.9z"/>
			<path class="st8" d="M357.8,141.2h16.4v4.3h-11.7v4.4h10.3v4.3h-10.3v4.6h11.8v4.3h-16.6V141.2z"/>
			<path class="st8" d="M395.5,141.1h4.4l9.4,22h-5l-2-4.9H393l-2,4.9h-4.9L395.5,141.1z M400.5,153.9l-2.9-7.1l-2.9,7.1H400.5z"/>
			<path class="st8" d="M412.6,141.2h4.4l10.2,13.4v-13.4h4.7v21.8h-4.1l-10.6-13.9v13.9h-4.7V141.2z"/>
			<path class="st8" d="M444.7,141.1h4.4l9.4,22h-5l-2-4.9h-9.2l-2,4.9h-4.9L444.7,141.1z M449.8,153.9l-2.9-7.1l-2.9,7.1H449.8z
				 M448.5,134l4.1,1.8l-4,3.7H445L448.5,134z"/>
			<path class="st8" d="M461.9,141.2h4.8v17.5h10.9v4.3h-15.7V141.2z"/>
			<path class="st8" d="M481.4,141.2h4.8v21.8h-4.8V141.2z"/>
			<path class="st8" d="M499.5,163.4c-1.7,0-3.3-0.3-4.9-0.9c-1.6-0.6-3.1-1.4-4.4-2.6l2.8-3.4c1,0.8,2,1.5,3.1,1.9
				c1,0.5,2.2,0.7,3.4,0.7c1,0,1.8-0.2,2.3-0.5c0.6-0.4,0.8-0.9,0.8-1.5V157c0-0.3-0.1-0.6-0.2-0.8c-0.1-0.2-0.3-0.5-0.7-0.7
				c-0.3-0.2-0.8-0.4-1.3-0.6c-0.6-0.2-1.3-0.4-2.2-0.7c-1.1-0.3-2.1-0.6-3-0.9c-0.9-0.3-1.7-0.7-2.3-1.2c-0.6-0.5-1.1-1.1-1.5-1.8
				c-0.3-0.7-0.5-1.6-0.5-2.7v-0.1c0-1,0.2-1.9,0.6-2.7c0.4-0.8,0.9-1.5,1.6-2.1c0.7-0.6,1.5-1,2.4-1.3c0.9-0.3,2-0.5,3.1-0.5
				c1.6,0,3.1,0.2,4.4,0.7c1.3,0.5,2.6,1.2,3.7,2.1l-2.5,3.6c-1-0.7-1.9-1.2-2.9-1.6c-0.9-0.4-1.9-0.6-2.8-0.6s-1.6,0.2-2.1,0.5
				c-0.5,0.4-0.7,0.8-0.7,1.4v0.1c0,0.4,0.1,0.7,0.2,0.9c0.1,0.3,0.4,0.5,0.7,0.7c0.4,0.2,0.8,0.4,1.5,0.6c0.6,0.2,1.4,0.4,2.3,0.7
				c1.1,0.3,2.1,0.6,3,1c0.9,0.4,1.6,0.8,2.2,1.3c0.6,0.5,1,1.1,1.3,1.8c0.3,0.7,0.5,1.5,0.5,2.5v0.1c0,1.1-0.2,2-0.6,2.9
				c-0.4,0.8-0.9,1.5-1.6,2.1c-0.7,0.6-1.5,1-2.5,1.3C501.7,163.2,500.6,163.4,499.5,163.4z"/>
			<path class="st8" d="M511.6,141.2H528v4.3h-11.7v4.4h10.3v4.3h-10.3v4.6h11.8v4.3h-16.6V141.2z"/>
			<path class="st8" d="M333.4,175.7h8.5c1.7,0,3.3,0.3,4.7,0.8c1.4,0.6,2.7,1.3,3.7,2.3c1,1,1.8,2.1,2.4,3.4
				c0.6,1.3,0.8,2.7,0.8,4.3v0.1c0,1.5-0.3,3-0.8,4.3c-0.6,1.3-1.4,2.5-2.4,3.5c-1,1-2.3,1.7-3.7,2.3c-1.4,0.6-3,0.8-4.7,0.8h-8.5
				V175.7z M341.9,193.2c1,0,1.9-0.2,2.7-0.5c0.8-0.3,1.5-0.8,2.1-1.3c0.6-0.6,1-1.3,1.3-2.1c0.3-0.8,0.5-1.7,0.5-2.7v-0.1
				c0-1-0.2-1.8-0.5-2.6c-0.3-0.8-0.8-1.5-1.3-2.1c-0.6-0.6-1.3-1-2.1-1.4c-0.8-0.3-1.7-0.5-2.7-0.5h-3.7v13.2H341.9z"/>
			<path class="st8" d="M357.8,175.7h16.4v4.3h-11.7v4.4h10.3v4.3h-10.3v4.6h11.8v4.3h-16.6V175.7z"/>
			<path class="st8" d="M388,175.7h8.9c1.3,0,2.5,0.2,3.5,0.5c1,0.4,1.9,0.9,2.6,1.5c0.7,0.7,1.3,1.5,1.7,2.4
				c0.4,0.9,0.6,1.9,0.6,3.1v0.1c0,1.3-0.2,2.4-0.7,3.3c-0.5,1-1.1,1.8-1.9,2.4c-0.8,0.6-1.7,1.1-2.8,1.4c-1.1,0.3-2.2,0.5-3.4,0.5
				h-3.6v6.5H388V175.7z M396.6,186.7c1.2,0,2.1-0.3,2.8-1c0.7-0.6,1-1.4,1-2.4v-0.1c0-1.1-0.3-1.9-1-2.5c-0.7-0.6-1.6-0.8-2.9-0.8
				h-3.7v6.7H396.6z"/>
			<path class="st8" d="M419.4,197.9c-1.7,0-3.2-0.3-4.6-0.9c-1.4-0.6-2.6-1.4-3.7-2.4c-1-1-1.8-2.2-2.4-3.6
				c-0.6-1.4-0.9-2.8-0.9-4.4v-0.1c0-1.6,0.3-3,0.9-4.4c0.6-1.4,1.4-2.6,2.4-3.6c1-1,2.3-1.8,3.7-2.4c1.4-0.6,3-0.9,4.7-0.9
				c1.7,0,3.2,0.3,4.6,0.9c1.4,0.6,2.6,1.4,3.7,2.4s1.8,2.2,2.4,3.6c0.6,1.4,0.9,2.8,0.9,4.4v0.1c0,1.6-0.3,3-0.9,4.4
				c-0.6,1.4-1.4,2.6-2.4,3.6c-1,1-2.3,1.8-3.7,2.4C422.7,197.6,421.1,197.9,419.4,197.9z M419.5,193.5c1,0,1.8-0.2,2.7-0.5
				c0.8-0.4,1.5-0.8,2.1-1.5c0.6-0.6,1-1.3,1.3-2.2c0.3-0.8,0.5-1.7,0.5-2.6v-0.1c0-0.9-0.2-1.8-0.5-2.6c-0.3-0.8-0.8-1.6-1.4-2.2
				c-0.6-0.6-1.3-1.1-2.1-1.5c-0.8-0.4-1.7-0.5-2.7-0.5c-1,0-1.9,0.2-2.7,0.5c-0.8,0.4-1.5,0.8-2.1,1.5c-0.6,0.6-1,1.3-1.3,2.2
				c-0.3,0.8-0.5,1.7-0.5,2.6v0.1c0,0.9,0.2,1.8,0.5,2.7c0.3,0.8,0.8,1.6,1.4,2.2c0.6,0.6,1.3,1.1,2.1,1.5
				C417.6,193.3,418.5,193.5,419.5,193.5z"/>
			<path class="st8" d="M435.3,175.7h4.8v17.5H451v4.3h-15.7V175.7z"/>
			<path class="st8" d="M454.8,175.7h4.8v21.8h-4.8V175.7z M458.8,168.5l4.1,1.8l-4,3.7h-3.6L458.8,168.5z"/>
			<path class="st8" d="M470.2,180.1h-6.6v-4.4h18.1v4.4H475v17.4h-4.8V180.1z"/>
			<path class="st8" d="M485.5,175.7h4.8v21.8h-4.8V175.7z"/>
			<path class="st8" d="M506,197.9c-1.6,0-3.1-0.3-4.5-0.9c-1.4-0.6-2.6-1.4-3.6-2.4c-1-1-1.8-2.2-2.3-3.6c-0.6-1.4-0.8-2.8-0.8-4.4
				v-0.1c0-1.6,0.3-3,0.8-4.4c0.6-1.4,1.3-2.6,2.3-3.6c1-1,2.2-1.8,3.6-2.4c1.4-0.6,2.9-0.9,4.6-0.9c1,0,1.9,0.1,2.8,0.2
				c0.8,0.2,1.6,0.4,2.3,0.7c0.7,0.3,1.3,0.6,1.9,1.1c0.6,0.4,1.1,0.9,1.6,1.4l-3.1,3.5c-0.9-0.8-1.7-1.4-2.6-1.8
				c-0.9-0.4-1.9-0.7-3-0.7c-0.9,0-1.8,0.2-2.5,0.5c-0.8,0.4-1.4,0.8-2,1.5c-0.6,0.6-1,1.3-1.3,2.2s-0.5,1.7-0.5,2.6v0.1
				c0,0.9,0.2,1.8,0.5,2.7c0.3,0.8,0.7,1.6,1.3,2.2c0.6,0.6,1.2,1.1,2,1.5c0.8,0.4,1.6,0.5,2.6,0.5c1.2,0,2.3-0.2,3.2-0.7
				c0.9-0.5,1.7-1.1,2.6-1.9l3.1,3.1c-0.6,0.6-1.1,1.1-1.7,1.6c-0.6,0.5-1.3,0.9-2,1.2c-0.7,0.3-1.5,0.6-2.4,0.8
				C508,197.8,507.1,197.9,506,197.9z"/>
			<path class="st8" d="M526.3,175.6h4.4l9.4,22h-5l-2-4.9h-9.2l-2,4.9h-4.9L526.3,175.6z M531.3,188.4l-2.9-7.1l-2.9,7.1H531.3z"/>
			<path class="st8" d="M551.2,197.8c-1.7,0-3.3-0.3-4.9-0.9c-1.6-0.6-3.1-1.4-4.4-2.6l2.8-3.4c1,0.8,2,1.5,3.1,1.9
				c1,0.5,2.2,0.7,3.4,0.7c1,0,1.8-0.2,2.3-0.5c0.6-0.4,0.8-0.9,0.8-1.5v-0.1c0-0.3-0.1-0.6-0.2-0.8c-0.1-0.2-0.3-0.5-0.7-0.7
				c-0.3-0.2-0.8-0.4-1.3-0.6c-0.6-0.2-1.3-0.4-2.2-0.7c-1.1-0.3-2.1-0.6-3-0.9c-0.9-0.3-1.7-0.7-2.3-1.2c-0.6-0.5-1.1-1.1-1.5-1.8
				c-0.3-0.7-0.5-1.6-0.5-2.7V182c0-1,0.2-1.9,0.6-2.7c0.4-0.8,0.9-1.5,1.6-2.1c0.7-0.6,1.5-1,2.4-1.3c0.9-0.3,2-0.5,3.1-0.5
				c1.6,0,3.1,0.2,4.4,0.7c1.3,0.5,2.6,1.2,3.7,2.1l-2.5,3.6c-1-0.7-1.9-1.2-2.9-1.6c-0.9-0.4-1.9-0.6-2.8-0.6
				c-0.9,0-1.6,0.2-2.1,0.5c-0.5,0.4-0.7,0.8-0.7,1.4v0.1c0,0.4,0.1,0.7,0.2,0.9c0.1,0.3,0.4,0.5,0.7,0.7c0.4,0.2,0.8,0.4,1.5,0.6
				c0.6,0.2,1.4,0.4,2.3,0.7c1.1,0.3,2.1,0.6,3,1c0.9,0.4,1.6,0.8,2.2,1.3c0.6,0.5,1,1.1,1.3,1.8c0.3,0.7,0.5,1.5,0.5,2.5v0.1
				c0,1.1-0.2,2-0.6,2.9c-0.4,0.8-0.9,1.5-1.6,2.1c-0.7,0.6-1.5,1-2.5,1.3C553.5,197.7,552.4,197.8,551.2,197.8z"/>
			<path class="st8" d="M333.4,210.2h8.9c1.3,0,2.5,0.2,3.5,0.5c1,0.4,1.9,0.9,2.6,1.5c0.7,0.7,1.3,1.5,1.7,2.4
				c0.4,0.9,0.6,1.9,0.6,3.1v0.1c0,1.3-0.2,2.4-0.7,3.3c-0.5,1-1.1,1.8-1.9,2.4c-0.8,0.6-1.7,1.1-2.8,1.4c-1.1,0.3-2.2,0.5-3.4,0.5
				h-3.6v6.5h-4.8V210.2z M342,221.2c1.2,0,2.1-0.3,2.8-1c0.7-0.6,1-1.4,1-2.4v-0.1c0-1.1-0.3-1.9-1-2.5c-0.7-0.6-1.6-0.8-2.9-0.8
				h-3.7v6.7H342z"/>
			<path class="st8" d="M363.3,232.3c-2.9,0-5.2-0.8-6.9-2.4c-1.7-1.6-2.5-4-2.5-7.3v-12.5h4.8v12.3c0,1.8,0.4,3.1,1.2,4
				c0.8,0.9,2,1.4,3.5,1.4c1.5,0,2.6-0.4,3.5-1.3c0.8-0.9,1.2-2.2,1.2-3.9v-12.5h4.8v12.3c0,1.7-0.2,3.1-0.7,4.3
				c-0.4,1.2-1.1,2.2-1.9,3.1c-0.8,0.8-1.8,1.4-3,1.8C366.1,232.1,364.8,232.3,363.3,232.3z M364.7,203.1l4.1,1.8l-4,3.7h-3.6
				L364.7,203.1z"/>
			<path class="st8" d="M377.8,210.2h10.1c2.5,0,4.4,0.6,5.7,1.9c1,1,1.5,2.2,1.5,3.7v0.1c0,0.6-0.1,1.2-0.2,1.7
				c-0.2,0.5-0.4,0.9-0.6,1.3c-0.3,0.4-0.6,0.7-0.9,1c-0.3,0.3-0.7,0.5-1.1,0.7c1.3,0.5,2.3,1.1,3,1.9c0.7,0.8,1.1,2,1.1,3.4v0.1
				c0,1-0.2,1.9-0.6,2.6c-0.4,0.7-0.9,1.4-1.7,1.9c-0.7,0.5-1.6,0.9-2.6,1.1c-1,0.2-2.1,0.4-3.3,0.4h-10.4V210.2z M386.9,219
				c1.1,0,1.9-0.2,2.5-0.5c0.6-0.4,0.9-1,0.9-1.8v-0.1c0-0.7-0.3-1.3-0.8-1.7c-0.5-0.4-1.3-0.6-2.3-0.6h-4.7v4.6H386.9z
				 M388.2,227.8c1.1,0,1.9-0.2,2.5-0.6c0.6-0.4,0.9-1,0.9-1.8v-0.1c0-0.7-0.3-1.3-0.8-1.7c-0.6-0.4-1.5-0.6-2.7-0.6h-5.6v4.8H388.2
				z"/>
			<path class="st8" d="M400.3,210.2h4.8v17.5H416v4.3h-15.7V210.2z"/>
			<path class="st8" d="M419.8,210.2h4.8V232h-4.8V210.2z"/>
			<path class="st8" d="M440.3,232.4c-1.6,0-3.1-0.3-4.5-0.9c-1.4-0.6-2.6-1.4-3.6-2.4c-1-1-1.8-2.2-2.3-3.6
				c-0.6-1.4-0.8-2.8-0.8-4.4v-0.1c0-1.6,0.3-3,0.8-4.4c0.6-1.4,1.3-2.6,2.3-3.6c1-1,2.2-1.8,3.6-2.4c1.4-0.6,2.9-0.9,4.6-0.9
				c1,0,1.9,0.1,2.8,0.2c0.8,0.2,1.6,0.4,2.3,0.7c0.7,0.3,1.3,0.6,1.9,1.1c0.6,0.4,1.1,0.9,1.6,1.4l-3.1,3.5
				c-0.9-0.8-1.7-1.4-2.6-1.8c-0.9-0.4-1.9-0.7-3-0.7c-0.9,0-1.8,0.2-2.5,0.5c-0.8,0.4-1.5,0.8-2,1.5c-0.6,0.6-1,1.3-1.3,2.2
				c-0.3,0.8-0.5,1.7-0.5,2.6v0.1c0,0.9,0.2,1.8,0.5,2.7c0.3,0.8,0.7,1.6,1.3,2.2c0.6,0.6,1.2,1.1,2,1.5c0.8,0.4,1.6,0.5,2.6,0.5
				c1.2,0,2.3-0.2,3.2-0.7c0.9-0.5,1.7-1.1,2.6-1.9l3.1,3.1c-0.6,0.6-1.1,1.1-1.7,1.6c-0.6,0.5-1.3,0.9-2,1.2
				c-0.7,0.3-1.5,0.6-2.4,0.8C442.3,232.3,441.3,232.4,440.3,232.4z"/>
			<path class="st8" d="M460.5,210h4.4l9.4,22h-5l-2-4.9h-9.2l-2,4.9h-4.9L460.5,210z M465.6,222.9l-2.9-7.1l-2.9,7.1H465.6z"/>
			<path class="st8" d="M485.5,232.3c-1.7,0-3.3-0.3-4.9-0.9c-1.6-0.6-3.1-1.4-4.4-2.6l2.8-3.4c1,0.8,2,1.5,3.1,1.9
				c1,0.5,2.2,0.7,3.4,0.7c1,0,1.8-0.2,2.3-0.5c0.6-0.4,0.8-0.9,0.8-1.5V226c0-0.3-0.1-0.6-0.2-0.8c-0.1-0.2-0.3-0.5-0.7-0.7
				c-0.3-0.2-0.8-0.4-1.3-0.6c-0.6-0.2-1.3-0.4-2.2-0.7c-1.1-0.3-2.1-0.6-3-0.9c-0.9-0.3-1.7-0.7-2.3-1.2c-0.6-0.5-1.1-1.1-1.5-1.8
				c-0.3-0.7-0.5-1.6-0.5-2.7v-0.1c0-1,0.2-1.9,0.6-2.7c0.4-0.8,0.9-1.5,1.6-2.1c0.7-0.6,1.5-1,2.4-1.3c0.9-0.3,2-0.5,3.1-0.5
				c1.6,0,3.1,0.2,4.4,0.7c1.3,0.5,2.6,1.2,3.7,2.1l-2.5,3.6c-1-0.7-1.9-1.2-2.9-1.6c-0.9-0.4-1.9-0.6-2.8-0.6
				c-0.9,0-1.6,0.2-2.1,0.5c-0.5,0.4-0.7,0.8-0.7,1.4v0.1c0,0.4,0.1,0.7,0.2,0.9c0.1,0.3,0.4,0.5,0.7,0.7c0.4,0.2,0.8,0.4,1.5,0.6
				c0.6,0.2,1.4,0.4,2.3,0.7c1.1,0.3,2.1,0.6,3,1c0.9,0.4,1.6,0.8,2.2,1.3c0.6,0.5,1,1.1,1.3,1.8c0.3,0.7,0.5,1.5,0.5,2.5v0.1
				c0,1.1-0.2,2-0.6,2.9c-0.4,0.8-0.9,1.5-1.6,2.1c-0.7,0.6-1.5,1-2.5,1.3C487.7,232.2,486.7,232.3,485.5,232.3z"/>
		</g>
	</g>
	<g>
		<path class="st0" d="M334.7,38.8h17c3.9,0,7.5,0.5,10.5,1.6c3.1,1.1,5.7,2.6,7.8,4.5c2.1,1.9,3.7,4.2,4.8,6.9
			c1.1,2.7,1.7,5.6,1.7,8.8v0.1c0,3.2-0.6,6.1-1.7,8.8c-1.1,2.7-2.8,5-4.9,7c-2.1,2-4.8,3.5-7.9,4.6c-3.1,1.1-6.7,1.7-10.6,1.7
			h-16.7V38.8z M351.9,72.1c3.7,0,6.6-1,8.8-2.9c2.2-1.9,3.3-4.7,3.3-8.2v-0.1c0-3.5-1.1-6.3-3.3-8.2c-2.2-2-5.2-2.9-8.8-2.9h-5
			v22.4H351.9z"/>
		<path class="st0" d="M398.1,38.5h11.8l18.8,44.4h-13.1l-3.2-7.9h-17l-3.1,7.9h-12.8L398.1,38.5z M408.8,65.6L403.8,53l-5,12.5
			H408.8z"/>
		<path class="st0" d="M432.9,38.8h18.9c2.8,0,5.3,0.3,7.6,1c2.3,0.7,4.2,1.7,5.8,3c1.6,1.3,2.8,2.9,3.7,4.9
			c0.9,1.9,1.3,4.1,1.3,6.5v0.1c0,2.6-0.5,4.9-1.4,6.9c-0.9,2-2.3,3.6-3.9,5c-1.7,1.3-3.7,2.4-6,3c-2.3,0.7-4.9,1-7.6,1h-6v12.6
			h-12.2V38.8z M450.9,60.7c2.2,0,3.9-0.5,5.1-1.6c1.2-1,1.9-2.4,1.9-4.2v-0.1c0-1.9-0.6-3.3-1.9-4.3c-1.2-1-3-1.5-5.2-1.5h-5.7
			v11.7H450.9z"/>
		<path class="st0" d="M475.2,38.8h18.9c2.8,0,5.3,0.3,7.6,1c2.3,0.7,4.2,1.7,5.8,3c1.6,1.3,2.8,2.9,3.7,4.9
			c0.9,1.9,1.3,4.1,1.3,6.5v0.1c0,2.6-0.5,4.9-1.4,6.9c-0.9,2-2.3,3.6-3.9,5c-1.7,1.3-3.7,2.4-6,3c-2.3,0.7-4.9,1-7.6,1h-6v12.6
			h-12.2V38.8z M493.2,60.7c2.2,0,3.9-0.5,5.1-1.6c1.2-1,1.9-2.4,1.9-4.2v-0.1c0-1.9-0.6-3.3-1.9-4.3c-1.2-1-3-1.5-5.2-1.5h-5.7
			v11.7H493.2z"/>
	</g>
	<g>
		<g>
			<g>
				<path class="st8" d="M179.3,38.5h35.3v10.7h-23.1v7.4h20.9v10.2h-20.9v15.8h-12.2V38.5z"/>
				<path class="st8" d="M242.7,83.5c-3.4,0-6.6-0.6-9.6-1.7c-2.9-1.1-5.5-2.7-7.6-4.7c-2.1-2-3.8-4.4-5-7.2
					c-1.2-2.8-1.8-5.9-1.8-9.2v-0.1c0-3.2,0.6-6.2,1.8-9c1.2-2.8,2.8-5.2,4.9-7.3c2.1-2.1,4.6-3.7,7.5-4.9c2.9-1.2,6.1-1.8,9.5-1.8
					c3.9,0,7.3,0.6,10.1,1.7c2.8,1.1,5.4,2.7,7.8,4.7l-7.2,8.6c-1.6-1.3-3.2-2.4-4.9-3.1c-1.7-0.7-3.6-1.1-5.8-1.1
					c-1.6,0-3.1,0.3-4.4,0.9c-1.4,0.6-2.6,1.5-3.6,2.6c-1,1.1-1.8,2.4-2.4,3.8c-0.6,1.5-0.9,3-0.9,4.7v0.1c0,1.8,0.3,3.4,0.9,4.9
					c0.6,1.5,1.4,2.8,2.5,3.9c1.1,1.1,2.3,1.9,3.8,2.5c1.5,0.6,3.1,0.9,4.8,0.9c2.9,0,5.2-0.6,7.1-1.8v-5.4h-8.7v-9h20.3v19.9
					c-2.4,1.9-5.1,3.6-8.3,4.9C250.3,82.9,246.7,83.5,242.7,83.5z"/>
				<path class="st8" d="M265.1,38.5h13.7l10,27.9l10-27.9h13.4l-18,44.2H283L265.1,38.5z"/>
			</g>
		</g>
		<g>
			<polygon class="st1" points="118.7,52.8 133.9,38.6 168.2,38.6 139.2,65.6 			"/>
			<polygon class="st9" points="55.7,38.6 90.9,38.6 129.3,82.7 94,82.7 			"/>
		</g>
	</g>
</g>
</svg>
