<svg width="458" height="47" viewBox="0 0 458 47" fill="none" xmlns="http://www.w3.org/2000/svg">
<path d="M279.7 1.80005H296.7C300.6 1.80005 304.2 2.30005 307.2 3.40005C310.3 4.50005 312.9 6.00005 315 7.90005C317.1 9.80005 318.7 12.1 319.8 14.8C320.9 17.5 321.5 20.4 321.5 23.6V23.7001C321.5 26.9001 320.9 29.8 319.8 32.5C318.7 35.2 317 37.5 314.9 39.5C312.8 41.5 310.1 43 307 44.1C303.9 45.2 300.3 45.8001 296.4 45.8001H279.7V1.80005V1.80005ZM296.9 35.1C300.6 35.1 303.5 34.1 305.7 32.2C307.9 30.3 309 27.5 309 24V23.9001C309 20.4001 307.9 17.6001 305.7 15.7001C303.5 13.7001 300.5 12.8 296.9 12.8H291.9V35.2H296.9V35.1Z" fill="#008FD0"/>
<path d="M343.1 1.5H354.9L373.7 45.9H360.6L357.4 38H340.4L337.3 45.9H324.5L343.1 1.5ZM353.8 28.6L348.8 16L343.8 28.5H353.8V28.6Z" fill="#008FD0"/>
<path d="M377.9 1.80005H396.8C399.6 1.80005 402.1 2.10005 404.4 2.80005C406.7 3.50005 408.6 4.50005 410.2 5.80005C411.8 7.10005 413 8.70005 413.9 10.7001C414.8 12.6001 415.2 14.8001 415.2 17.2001V17.3C415.2 19.9 414.7 22.2001 413.8 24.2001C412.9 26.2001 411.5 27.8 409.9 29.2C408.2 30.5 406.2 31.6 403.9 32.2C401.6 32.9 399 33.2 396.3 33.2H390.3V45.8001H378.1V1.80005H377.9ZM395.9 23.7001C398.1 23.7001 399.8 23.2 401 22.1C402.2 21.1 402.9 19.7001 402.9 17.9001V17.8C402.9 15.9 402.3 14.5 401 13.5C399.8 12.5 398 12 395.8 12H390.1V23.7001H395.9Z" fill="#008FD0"/>
<path d="M420.2 1.80005H439.1C441.9 1.80005 444.4 2.10005 446.7 2.80005C449 3.50005 450.9 4.50005 452.5 5.80005C454.1 7.10005 455.3 8.70005 456.2 10.7001C457.1 12.6001 457.5 14.8001 457.5 17.2001V17.3C457.5 19.9 457 22.2001 456.1 24.2001C455.2 26.2001 453.8 27.8 452.2 29.2C450.5 30.5 448.5 31.6 446.2 32.2C443.9 32.9 441.3 33.2 438.6 33.2H432.6V45.8001H420.4V1.80005H420.2ZM438.2 23.7001C440.4 23.7001 442.1 23.2 443.3 22.1C444.5 21.1 445.2 19.7001 445.2 17.9001V17.8C445.2 15.9 444.6 14.5 443.3 13.5C442.1 12.5 440.3 12 438.1 12H432.4V23.7001H438.2Z" fill="#008FD0"/>
<path d="M124.3 1.5H159.6V12.2H136.5V19.6H157.4V29.8H136.5V45.6H124.3V1.5V1.5Z" fill="#223B75"/>
<path d="M187.7 46.5C184.3 46.5 181.1 45.9 178.1 44.8C175.2 43.7 172.6 42.1 170.5 40.1C168.4 38.1 166.7 35.7 165.5 32.9C164.3 30.1 163.7 27 163.7 23.7V23.6C163.7 20.4 164.3 17.4 165.5 14.6C166.7 11.8 168.3 9.39998 170.4 7.29998C172.5 5.19998 175 3.59998 177.9 2.39998C180.8 1.19998 184 0.599976 187.4 0.599976C191.3 0.599976 194.7 1.19998 197.5 2.29998C200.3 3.39998 202.9 4.99998 205.3 6.99998L198.1 15.6C196.5 14.3 194.9 13.2 193.2 12.5C191.5 11.8 189.6 11.4 187.4 11.4C185.8 11.4 184.3 11.7 183 12.3C181.6 12.9 180.4 13.8 179.4 14.9C178.4 16 177.6 17.3 177 18.7C176.4 20.2 176.1 21.7 176.1 23.4V23.5C176.1 25.3 176.4 26.9 177 28.4C177.6 29.9 178.4 31.2 179.5 32.3C180.6 33.4 181.8 34.2 183.3 34.8C184.8 35.4 186.4 35.7 188.1 35.7C191 35.7 193.3 35.1 195.2 33.9V28.5H186.5V19.5H206.8V39.4C204.4 41.3 201.7 43 198.5 44.3C195.3 45.9 191.7 46.5 187.7 46.5Z" fill="#223B75"/>
<path d="M210.1 1.5H223.8L233.8 29.4L243.8 1.5H257.2L239.2 45.7H228L210.1 1.5Z" fill="#223B75"/>
<path fill-rule="evenodd" clip-rule="evenodd" d="M63.7 15.8L78.9 1.59998H113.2L84.2 28.6L63.7 15.8Z" fill="#008FD0"/>
<path fill-rule="evenodd" clip-rule="evenodd" d="M0.700012 1.59998H35.9L74.3 45.7H39L0.700012 1.59998Z" fill="#223B75"/>
</svg>
