<svg width="1384" height="139" viewBox="0 0 1384 139" fill="none" xmlns="http://www.w3.org/2000/svg">
<path d="M844.902 3.634H896.384C908.194 3.634 919.096 5.14816 928.181 8.47931C937.569 11.8105 945.442 16.353 951.802 22.1068C958.161 27.8606 963.007 34.8257 966.338 43.0022C969.669 51.1787 971.486 59.9608 971.486 69.6514V69.9542C971.486 79.6449 969.669 88.427 966.338 96.6035C963.007 104.78 957.859 111.745 951.499 117.802C945.14 123.858 936.963 128.401 927.575 131.732C918.188 135.063 907.286 136.88 895.475 136.88H844.902V3.634V3.634ZM896.989 104.477C908.194 104.477 916.976 101.449 923.639 95.695C930.301 89.9412 933.632 81.4619 933.632 70.8628V70.5599C933.632 59.9608 930.301 51.4815 923.639 45.7277C916.976 39.671 907.891 36.9455 896.989 36.9455H881.848V104.78H896.989V104.477Z" fill="#868686"/>
<path d="M1036.6 2.72557H1072.33L1129.26 137.183H1089.59L1079.9 113.259H1028.42L1019.03 137.183H980.269L1036.6 2.72557ZM1069 84.7931L1054.16 46.9391L1039.02 84.7931H1069Z" fill="#868686"/>
<path d="M1142.28 3.634H1199.52C1208 3.634 1215.57 4.5425 1222.53 6.66233C1229.5 8.78215 1235.25 11.8105 1240.1 15.7473C1244.94 19.6841 1248.58 24.5294 1251.3 30.5861C1254.03 36.3399 1255.24 43.0022 1255.24 50.2702V50.573C1255.24 58.4466 1253.73 65.4118 1251 71.4684C1248.27 77.5251 1244.04 82.3704 1239.19 86.61C1234.04 90.5468 1227.99 93.878 1221.02 95.695C1214.06 97.8148 1206.18 98.7233 1198 98.7233H1179.83V136.88H1142.89V3.634H1142.28ZM1196.79 69.9542C1203.46 69.9542 1208.6 68.4401 1212.24 65.1089C1215.87 62.0806 1217.99 57.841 1217.99 52.39V52.0872C1217.99 46.3333 1216.17 42.0937 1212.24 39.0654C1208.6 36.037 1203.15 34.5229 1196.49 34.5229H1179.23V69.9542H1196.79V69.9542Z" fill="#868686"/>
<path d="M1270.38 3.63403H1327.62C1336.1 3.63403 1343.67 4.54253 1350.63 6.66236C1357.6 8.78218 1363.35 11.8105 1368.2 15.7473C1373.04 19.6841 1376.68 24.5294 1379.4 30.5861C1382.13 36.3399 1383.34 43.0022 1383.34 50.2702V50.573C1383.34 58.4467 1381.82 65.4118 1379.1 71.4684C1376.37 77.5251 1372.13 82.3704 1367.29 86.6101C1362.14 90.5469 1356.08 93.878 1349.12 95.695C1342.15 97.8148 1334.28 98.7233 1326.1 98.7233H1307.93V136.88H1270.38V3.63403ZM1324.89 69.9543C1331.55 69.9543 1336.7 68.4401 1340.34 65.109C1343.97 62.0806 1346.09 57.841 1346.09 52.39V52.0872C1346.09 46.3334 1344.27 42.0937 1340.34 39.0654C1336.7 36.0371 1331.25 34.5229 1324.59 34.5229H1307.33V69.9543H1324.89V69.9543Z" fill="#868686"/>
<path d="M374.3 2.72557H481.2V35.1286H411.246V57.5382H474.538V88.4271H411.246V136.275H374.3V2.72557Z" fill="#868686"/>
<path d="M566.296 139C555.999 139 546.309 137.183 537.224 133.852C528.441 130.521 520.568 125.675 514.208 119.619C507.849 113.562 502.701 106.294 499.067 97.8148C495.433 89.3355 493.616 79.9477 493.616 69.9542V69.6514C493.616 59.9608 495.433 50.8758 499.067 42.3965C502.701 33.9172 507.546 26.6493 513.906 20.2898C520.265 13.9303 527.836 9.08498 536.618 5.45099C545.4 1.817 555.091 0 565.387 0C577.198 0 587.494 1.81701 595.973 5.14816C604.452 8.47932 612.326 13.3246 619.594 19.3813L597.79 45.4248C592.945 41.488 588.099 38.1569 582.951 36.037C577.803 33.9172 572.049 32.7059 565.387 32.7059C560.542 32.7059 555.999 33.6144 552.062 35.4314C547.823 37.2484 544.189 39.9739 541.16 43.305C538.132 46.6362 535.709 50.573 533.892 54.8126C532.075 59.3551 531.167 63.8976 531.167 69.0458V69.3486C531.167 74.7996 532.075 79.6449 533.892 84.1874C535.709 88.7299 538.132 92.6667 541.463 95.9978C544.794 99.329 548.428 101.752 552.971 103.569C557.513 105.386 562.359 106.294 567.507 106.294C576.289 106.294 583.254 104.477 589.008 100.843V84.4902H562.661V57.2353H624.136V117.499C616.869 123.253 608.692 128.401 599.001 132.338C589.311 137.183 578.409 139 566.296 139Z" fill="#868686"/>
<path d="M634.13 2.72557H675.618L705.901 87.2158L736.185 2.72557H776.764L722.254 136.577H687.732L634.13 2.72557Z" fill="#868686"/>
<path fill-rule="evenodd" clip-rule="evenodd" d="M190.785 46.0305L236.815 3.02827H340.687L252.865 84.793L190.785 46.0305Z" fill="#868686"/>
<path fill-rule="evenodd" clip-rule="evenodd" d="M0 3.02832H106.597L222.885 136.577H115.985L0 3.02832Z" fill="#868686"/>
</svg>
