<?xml version="1.0" encoding="utf-8"?>
<!-- Generator: Adobe Illustrator 22.1.0, SVG Export Plug-In . SVG Version: 6.00 Build 0)  -->
<svg version="1.1" id="Layer_1" xmlns="http://www.w3.org/2000/svg" xmlns:xlink="http://www.w3.org/1999/xlink" x="0px" y="0px"
	 viewBox="0 0 597.5 269.7" style="enable-background:new 0 0 597.5 269.7;" xml:space="preserve">
<style type="text/css">
	.st0{fill:#008FD0;}
	.st1{fill-rule:evenodd;clip-rule:evenodd;fill:#008FD0;}
	.st2{fill:#8E8F90;}
	.st3{fill-rule:evenodd;clip-rule:evenodd;fill:#8E8F90;}
	.st4{fill:#060505;}
	.st5{fill-rule:evenodd;clip-rule:evenodd;fill:#060505;}
	.st6{fill:#FFFFFF;}
	.st7{fill-rule:evenodd;clip-rule:evenodd;fill:#FFFFFF;}
	.st8{fill:#223B75;}
	.st9{fill-rule:evenodd;clip-rule:evenodd;fill:#223B75;}
	.st10{fill:#138BCB;}
	.st11{fill-rule:evenodd;clip-rule:evenodd;fill:#138BCB;}
	.st12{fill:#9FA1A3;}
</style>
<g>
	<g>
		<path class="st0" d="M334.7,118.8h17c3.9,0,7.5,0.5,10.5,1.6c3.1,1.1,5.7,2.6,7.8,4.5c2.1,1.9,3.7,4.2,4.8,6.9
			c1.1,2.7,1.7,5.6,1.7,8.8v0.1c0,3.2-0.6,6.1-1.7,8.8c-1.1,2.7-2.8,5-4.9,7c-2.1,2-4.8,3.5-7.9,4.6c-3.1,1.1-6.7,1.7-10.6,1.7
			h-16.7V118.8z M351.9,152.1c3.7,0,6.6-1,8.8-2.9c2.2-1.9,3.3-4.7,3.3-8.2v-0.1c0-3.5-1.1-6.3-3.3-8.2c-2.2-2-5.2-2.9-8.8-2.9h-5
			v22.4H351.9z"/>
		<path class="st0" d="M398.1,118.5h11.8l18.8,44.4h-13.1l-3.2-7.9h-17l-3.1,7.9h-12.8L398.1,118.5z M408.8,145.6l-4.9-12.5l-5,12.5
			H408.8z"/>
		<path class="st0" d="M432.9,118.8h18.9c2.8,0,5.3,0.3,7.6,1c2.3,0.7,4.2,1.7,5.8,3c1.6,1.3,2.8,2.9,3.7,4.9
			c0.9,1.9,1.3,4.1,1.3,6.5v0.1c0,2.6-0.5,4.9-1.4,6.9c-0.9,2-2.3,3.6-3.9,5c-1.7,1.3-3.7,2.4-6,3c-2.3,0.7-4.9,1-7.6,1h-6v12.6
			h-12.2V118.8z M450.9,140.7c2.2,0,3.9-0.5,5.1-1.6c1.2-1,1.9-2.4,1.9-4.2v-0.1c0-1.9-0.6-3.3-1.9-4.3c-1.2-1-3-1.5-5.2-1.5h-5.7
			v11.7H450.9z"/>
		<path class="st0" d="M475.2,118.8h18.9c2.8,0,5.3,0.3,7.6,1c2.3,0.7,4.2,1.7,5.8,3c1.6,1.3,2.8,2.9,3.7,4.9
			c0.9,1.9,1.3,4.1,1.3,6.5v0.1c0,2.6-0.5,4.9-1.4,6.9c-0.9,2-2.3,3.6-3.9,5c-1.7,1.3-3.7,2.4-6,3c-2.3,0.7-4.9,1-7.6,1h-6v12.6
			h-12.2V118.8z M493.2,140.7c2.2,0,3.9-0.5,5.1-1.6c1.2-1,1.9-2.4,1.9-4.2v-0.1c0-1.9-0.6-3.3-1.9-4.3c-1.2-1-3-1.5-5.2-1.5h-5.7
			v11.7H493.2z"/>
	</g>
	<g>
		<g>
			<g>
				<path class="st0" d="M179.3,118.5h35.3v10.7h-23.1v7.4h20.9v10.2h-20.9v15.8h-12.2V118.5z"/>
				<path class="st0" d="M242.7,163.5c-3.4,0-6.6-0.6-9.6-1.7c-2.9-1.1-5.5-2.7-7.6-4.7c-2.1-2-3.8-4.4-5-7.2
					c-1.2-2.8-1.8-5.9-1.8-9.2v-0.1c0-3.2,0.6-6.2,1.8-9c1.2-2.8,2.8-5.2,4.9-7.3c2.1-2.1,4.6-3.7,7.5-4.9c2.9-1.2,6.1-1.8,9.5-1.8
					c3.9,0,7.3,0.6,10.1,1.7c2.8,1.1,5.4,2.7,7.8,4.7l-7.2,8.6c-1.6-1.3-3.2-2.4-4.9-3.1c-1.7-0.7-3.6-1.1-5.8-1.1
					c-1.6,0-3.1,0.3-4.4,0.9c-1.4,0.6-2.6,1.5-3.6,2.6c-1,1.1-1.8,2.4-2.4,3.8c-0.6,1.5-0.9,3-0.9,4.7v0.1c0,1.8,0.3,3.4,0.9,4.9
					c0.6,1.5,1.4,2.8,2.5,3.9c1.1,1.1,2.3,1.9,3.8,2.5c1.5,0.6,3.1,0.9,4.8,0.9c2.9,0,5.2-0.6,7.1-1.8v-5.4h-8.7v-9h20.3v19.9
					c-2.4,1.9-5.1,3.6-8.3,4.9C250.3,162.9,246.7,163.5,242.7,163.5z"/>
				<path class="st0" d="M265.1,118.5h13.7l10,27.9l10-27.9h13.4l-18,44.2H283L265.1,118.5z"/>
			</g>
		</g>
		<g>
			<polygon class="st1" points="118.7,132.8 133.9,118.6 168.2,118.6 139.2,145.6 			"/>
			<polygon class="st1" points="55.7,118.6 90.9,118.6 129.3,162.7 94,162.7 			"/>
		</g>
	</g>
</g>
</svg>
