<svg width="18" height="18" viewBox="0 0 18 18" fill="none" xmlns="http://www.w3.org/2000/svg">
<path d="M8.59717 0C3.84909 0 0 3.84909 0 8.59717C0 13.3453 3.84909 17.1943 8.59717 17.1943C13.3453 17.1943 17.1943 13.3453 17.1943 8.59717C17.1893 3.85121 13.3432 0.00507339 8.59717 0ZM8.59717 15.9662C4.52737 15.9662 1.22816 12.667 1.22816 8.59717C1.22816 4.52737 4.52737 1.22816 8.59717 1.22816C12.667 1.22816 15.9662 4.52737 15.9662 8.59717C15.9618 12.6652 12.6652 15.9618 8.59717 15.9662Z" fill="#919191"/>
<path d="M8.59719 3.0705C8.25803 3.0705 7.9831 3.34543 7.9831 3.68459V7.98319H3.68453C3.34537 7.98319 3.07043 8.25813 3.07043 8.59729C3.07043 8.93645 3.34537 9.21135 3.68453 9.21135H8.59719C8.93635 9.21135 9.21129 8.93642 9.21129 8.59725V3.68459C9.21129 3.34543 8.93635 3.0705 8.59719 3.0705Z" fill="#919191"/>
</svg>
