<svg width="576" height="57" viewBox="0 0 576 57" fill="none" xmlns="http://www.w3.org/2000/svg">
<rect x="350.5" y="1.5" width="224" height="51" rx="8.5" fill="white" stroke="white" stroke-width="3"/>
<path d="M28.1717 13.6H31.2797L49.8017 37.162V13.6H53.0357V43H50.3897L31.4057 18.892V43H28.1717V13.6ZM75.0033 43.504C72.7633 43.504 70.7193 43.098 68.8713 42.286C67.0513 41.474 65.4833 40.382 64.1673 39.01C62.8513 37.61 61.8293 36 61.1013 34.18C60.4013 32.332 60.0513 30.4 60.0513 28.384V28.3C60.0513 26.284 60.4153 24.352 61.1433 22.504C61.8713 20.656 62.8933 19.046 64.2093 17.674C65.5253 16.274 67.1073 15.168 68.9553 14.356C70.8033 13.516 72.8473 13.096 75.0873 13.096C77.3273 13.096 79.3573 13.502 81.1773 14.314C83.0253 15.126 84.6073 16.232 85.9233 17.632C87.2393 19.004 88.2473 20.614 88.9473 22.462C89.6753 24.282 90.0393 26.2 90.0393 28.216V28.3C90.0393 30.316 89.6753 32.248 88.9473 34.096C88.2193 35.944 87.1973 37.568 85.8813 38.968C84.5653 40.34 82.9833 41.446 81.1353 42.286C79.2873 43.098 77.2433 43.504 75.0033 43.504ZM75.0873 40.438C76.7673 40.438 78.3073 40.13 79.7073 39.514C81.1353 38.87 82.3533 38.002 83.3613 36.91C84.3693 35.818 85.1533 34.544 85.7133 33.088C86.3013 31.632 86.5953 30.064 86.5953 28.384V28.3C86.5953 26.62 86.3013 25.052 85.7133 23.596C85.1533 22.112 84.3553 20.824 83.3193 19.732C82.2833 18.64 81.0513 17.772 79.6233 17.128C78.2233 16.484 76.6833 16.162 75.0033 16.162C73.3233 16.162 71.7693 16.484 70.3413 17.128C68.9413 17.744 67.7373 18.598 66.7293 19.69C65.7213 20.782 64.9233 22.056 64.3353 23.512C63.7753 24.968 63.4953 26.536 63.4953 28.216V28.3C63.4953 29.98 63.7753 31.562 64.3353 33.046C64.9233 34.502 65.7353 35.776 66.7713 36.868C67.8073 37.96 69.0253 38.828 70.4253 39.472C71.8533 40.116 73.4073 40.438 75.0873 40.438ZM92.7943 13.6H96.4903L106.948 38.926L117.448 13.6H121.018L108.376 43.21H105.436L92.7943 13.6ZM138.742 43.504C136.502 43.504 134.458 43.098 132.61 42.286C130.79 41.474 129.222 40.382 127.906 39.01C126.59 37.61 125.568 36 124.84 34.18C124.14 32.332 123.79 30.4 123.79 28.384V28.3C123.79 26.284 124.154 24.352 124.882 22.504C125.61 20.656 126.632 19.046 127.948 17.674C129.264 16.274 130.846 15.168 132.694 14.356C134.542 13.516 136.586 13.096 138.826 13.096C141.066 13.096 143.096 13.502 144.916 14.314C146.764 15.126 148.346 16.232 149.662 17.632C150.978 19.004 151.986 20.614 152.686 22.462C153.414 24.282 153.778 26.2 153.778 28.216V28.3C153.778 30.316 153.414 32.248 152.686 34.096C151.958 35.944 150.936 37.568 149.62 38.968C148.304 40.34 146.722 41.446 144.874 42.286C143.026 43.098 140.982 43.504 138.742 43.504ZM138.826 40.438C140.506 40.438 142.046 40.13 143.446 39.514C144.874 38.87 146.092 38.002 147.1 36.91C148.108 35.818 148.892 34.544 149.452 33.088C150.04 31.632 150.334 30.064 150.334 28.384V28.3C150.334 26.62 150.04 25.052 149.452 23.596C148.892 22.112 148.094 20.824 147.058 19.732C146.022 18.64 144.79 17.772 143.362 17.128C141.962 16.484 140.422 16.162 138.742 16.162C137.062 16.162 135.508 16.484 134.08 17.128C132.68 17.744 131.476 18.598 130.468 19.69C129.46 20.782 128.662 22.056 128.074 23.512C127.514 24.968 127.234 26.536 127.234 28.216V28.3C127.234 29.98 127.514 31.562 128.074 33.046C128.662 34.502 129.474 35.776 130.51 36.868C131.546 37.96 132.764 38.828 134.164 39.472C135.592 40.116 137.146 40.438 138.826 40.438ZM186.807 43.504C184.679 43.504 182.719 43.112 180.927 42.328C179.135 41.544 177.581 40.48 176.265 39.136C174.949 37.764 173.913 36.154 173.157 34.306C172.429 32.458 172.065 30.484 172.065 28.384V28.3C172.065 26.228 172.429 24.268 173.157 22.42C173.913 20.572 174.949 18.962 176.265 17.59C177.581 16.19 179.149 15.098 180.969 14.314C182.789 13.502 184.777 13.096 186.933 13.096C188.277 13.096 189.481 13.208 190.545 13.432C191.637 13.656 192.645 13.978 193.569 14.398C194.493 14.79 195.347 15.28 196.131 15.868C196.915 16.428 197.671 17.058 198.399 17.758L196.131 20.194C194.871 19.018 193.513 18.052 192.057 17.296C190.629 16.54 188.907 16.162 186.891 16.162C185.267 16.162 183.755 16.47 182.355 17.086C180.983 17.702 179.779 18.556 178.743 19.648C177.735 20.74 176.937 22.028 176.349 23.512C175.789 24.968 175.509 26.536 175.509 28.216V28.3C175.509 30.008 175.789 31.604 176.349 33.088C176.937 34.544 177.735 35.818 178.743 36.91C179.779 38.002 180.983 38.87 182.355 39.514C183.755 40.13 185.267 40.438 186.891 40.438C188.907 40.438 190.643 40.074 192.099 39.346C193.555 38.59 194.983 37.54 196.383 36.196L198.567 38.338C197.811 39.122 197.013 39.836 196.173 40.48C195.361 41.096 194.479 41.628 193.527 42.076C192.575 42.524 191.553 42.874 190.461 43.126C189.369 43.378 188.151 43.504 186.807 43.504ZM216.135 43.462C214.315 43.462 212.649 43.196 211.137 42.664C209.653 42.104 208.365 41.292 207.273 40.228C206.209 39.136 205.383 37.792 204.795 36.196C204.207 34.6 203.913 32.766 203.913 30.694V13.6H207.231V30.484C207.231 33.676 208.029 36.126 209.625 37.834C211.221 39.542 213.419 40.396 216.219 40.396C218.935 40.396 221.091 39.584 222.687 37.96C224.283 36.336 225.081 33.914 225.081 30.694V13.6H228.399V30.442C228.399 32.598 228.105 34.488 227.517 36.112C226.929 37.736 226.089 39.094 224.997 40.186C223.933 41.278 222.645 42.104 221.133 42.664C219.649 43.196 217.983 43.462 216.135 43.462ZM236.244 13.6H248.886C250.706 13.6 252.316 13.866 253.716 14.398C255.144 14.902 256.32 15.616 257.244 16.54C257.972 17.268 258.532 18.122 258.924 19.102C259.316 20.082 259.512 21.16 259.512 22.336V22.42C259.512 23.652 259.316 24.758 258.924 25.738C258.532 26.69 257.972 27.53 257.244 28.258C256.544 28.958 255.704 29.546 254.724 30.022C253.744 30.47 252.68 30.792 251.532 30.988L260.562 43H256.488L247.962 31.576H239.562V43H236.244V13.6ZM248.592 28.594C249.684 28.594 250.692 28.454 251.616 28.174C252.54 27.894 253.338 27.502 254.01 26.998C254.682 26.466 255.2 25.836 255.564 25.108C255.956 24.352 256.152 23.498 256.152 22.546V22.462C256.152 20.642 255.494 19.228 254.178 18.22C252.862 17.184 251.014 16.666 248.634 16.666H239.562V28.594H248.592ZM276.676 43.42C274.324 43.42 272.168 43.042 270.208 42.286C268.276 41.502 266.428 40.312 264.664 38.716L266.722 36.28C268.262 37.68 269.816 38.73 271.384 39.43C272.952 40.102 274.758 40.438 276.802 40.438C278.79 40.438 280.372 39.976 281.548 39.052C282.752 38.1 283.354 36.896 283.354 35.44V35.356C283.354 34.684 283.242 34.082 283.018 33.55C282.794 32.99 282.402 32.486 281.842 32.038C281.282 31.59 280.498 31.184 279.49 30.82C278.51 30.456 277.25 30.106 275.71 29.77C274.03 29.406 272.56 28.986 271.3 28.51C270.068 28.034 269.046 27.46 268.234 26.788C267.422 26.116 266.82 25.332 266.428 24.436C266.036 23.54 265.84 22.49 265.84 21.286V21.202C265.84 20.054 266.078 18.99 266.554 18.01C267.03 17.03 267.702 16.19 268.57 15.49C269.438 14.762 270.46 14.202 271.636 13.81C272.812 13.39 274.1 13.18 275.5 13.18C277.656 13.18 279.532 13.488 281.128 14.104C282.752 14.692 284.32 15.588 285.832 16.792L283.9 19.354C282.528 18.234 281.142 17.422 279.742 16.918C278.37 16.414 276.928 16.162 275.416 16.162C273.484 16.162 271.958 16.624 270.838 17.548C269.718 18.444 269.158 19.564 269.158 20.908V20.992C269.158 21.692 269.27 22.322 269.494 22.882C269.718 23.414 270.124 23.918 270.712 24.394C271.3 24.842 272.112 25.262 273.148 25.654C274.184 26.018 275.514 26.368 277.138 26.704C280.414 27.432 282.822 28.44 284.362 29.728C285.93 31.016 286.714 32.78 286.714 35.02V35.104C286.714 36.364 286.462 37.512 285.958 38.548C285.454 39.556 284.754 40.424 283.858 41.152C282.99 41.88 281.94 42.44 280.708 42.832C279.476 43.224 278.132 43.42 276.676 43.42ZM307.111 43.504C304.871 43.504 302.827 43.098 300.979 42.286C299.159 41.474 297.591 40.382 296.275 39.01C294.959 37.61 293.937 36 293.209 34.18C292.509 32.332 292.159 30.4 292.159 28.384V28.3C292.159 26.284 292.523 24.352 293.251 22.504C293.979 20.656 295.001 19.046 296.317 17.674C297.633 16.274 299.215 15.168 301.063 14.356C302.911 13.516 304.955 13.096 307.195 13.096C309.435 13.096 311.465 13.502 313.285 14.314C315.133 15.126 316.715 16.232 318.031 17.632C319.347 19.004 320.355 20.614 321.055 22.462C321.783 24.282 322.147 26.2 322.147 28.216V28.3C322.147 30.316 321.783 32.248 321.055 34.096C320.327 35.944 319.305 37.568 317.989 38.968C316.673 40.34 315.091 41.446 313.243 42.286C311.395 43.098 309.351 43.504 307.111 43.504ZM307.195 40.438C308.875 40.438 310.415 40.13 311.815 39.514C313.243 38.87 314.461 38.002 315.469 36.91C316.477 35.818 317.261 34.544 317.821 33.088C318.409 31.632 318.703 30.064 318.703 28.384V28.3C318.703 26.62 318.409 25.052 317.821 23.596C317.261 22.112 316.463 20.824 315.427 19.732C314.391 18.64 313.159 17.772 311.731 17.128C310.331 16.484 308.791 16.162 307.111 16.162C305.431 16.162 303.877 16.484 302.449 17.128C301.049 17.744 299.845 18.598 298.837 19.69C297.829 20.782 297.031 22.056 296.443 23.512C295.883 24.968 295.603 26.536 295.603 28.216V28.3C295.603 29.98 295.883 31.562 296.443 33.046C297.031 34.502 297.843 35.776 298.879 36.868C299.915 37.96 301.133 38.828 302.533 39.472C303.961 40.116 305.515 40.438 307.195 40.438Z" fill="white"/>
<path d="M381.529 13.5H400.184V18.4H386.919V23.615H398.609V28.515H386.919V38H381.529V13.5ZM416.293 38.42C414.379 38.42 412.629 38.105 411.043 37.475C409.479 36.845 408.126 35.97 406.983 34.85C405.863 33.73 404.988 32.4 404.358 30.86C403.728 29.32 403.413 27.64 403.413 25.82V25.75C403.413 24 403.728 22.3667 404.358 20.85C405.011 19.31 405.909 17.9683 407.053 16.825C408.196 15.6583 409.549 14.7483 411.113 14.095C412.676 13.4183 414.391 13.08 416.258 13.08C417.354 13.08 418.346 13.1617 419.233 13.325C420.143 13.465 420.983 13.675 421.753 13.955C422.523 14.235 423.246 14.585 423.923 15.005C424.599 15.425 425.253 15.9033 425.883 16.44L422.488 20.535C422.021 20.1383 421.554 19.7883 421.088 19.485C420.621 19.1817 420.131 18.925 419.618 18.715C419.128 18.505 418.591 18.3417 418.008 18.225C417.424 18.1083 416.783 18.05 416.083 18.05C415.103 18.05 414.181 18.26 413.318 18.68C412.478 19.0767 411.731 19.625 411.078 20.325C410.448 21.0017 409.946 21.8067 409.573 22.74C409.223 23.65 409.048 24.63 409.048 25.68V25.75C409.048 26.87 409.223 27.9083 409.573 28.865C409.946 29.7983 410.459 30.615 411.113 31.315C411.789 32.015 412.571 32.5633 413.458 32.96C414.368 33.3333 415.371 33.52 416.468 33.52C418.474 33.52 420.166 33.03 421.543 32.05V28.55H416.118V23.895H426.758V34.535C425.498 35.6083 423.993 36.53 422.243 37.3C420.516 38.0467 418.533 38.42 416.293 38.42ZM428.955 13.5H434.905L441.31 30.755L447.715 13.5H453.525L443.62 38.175H438.86L428.955 13.5ZM466.226 13.5H471.616V33.1H483.831V38H466.226V13.5ZM488.141 13.5H493.531V38H488.141V13.5ZM497.554 13.5H503.504L509.909 30.755L516.314 13.5H522.124L512.219 38.175H507.459L497.554 13.5ZM525.904 13.5H544.384V18.295H531.259V23.265H542.809V28.06H531.259V33.205H544.559V38H525.904V13.5Z" fill="#314486"/>
</svg>
