<svg width="228" height="62" viewBox="0 0 228 62" fill="none" xmlns="http://www.w3.org/2000/svg">
<path d="M50.1201 22.2039V17.3039H31.4651V41.8039H36.8551V32.3189H48.5451V27.4189H36.8551V22.2039H50.1201ZM76.6938 38.3389V27.6989H66.0538V32.3539H71.4788V35.8539C70.1021 36.8339 68.4105 37.3239 66.4038 37.3239C65.3071 37.3239 64.3038 37.1373 63.3938 36.7639C62.5071 36.3673 61.7255 35.8189 61.0488 35.1189C60.3955 34.4189 59.8821 33.6023 59.5088 32.6689C59.1588 31.7123 58.9838 30.6739 58.9838 29.5539V29.4839C58.9838 28.4339 59.1588 27.4539 59.5088 26.5439C59.8821 25.6106 60.3838 24.8056 61.0138 24.1289C61.6671 23.4289 62.4138 22.8806 63.2538 22.4839C64.1171 22.0639 65.0388 21.8539 66.0188 21.8539C66.7188 21.8539 67.3605 21.9123 67.9438 22.0289C68.5271 22.1456 69.0638 22.3089 69.5538 22.5189C70.0671 22.7289 70.5571 22.9856 71.0238 23.2889C71.4905 23.5923 71.9571 23.9423 72.4238 24.3389L75.8188 20.2439C75.1888 19.7073 74.5355 19.2289 73.8588 18.8089C73.1821 18.3889 72.4588 18.0389 71.6888 17.7589C70.9188 17.4789 70.0788 17.2689 69.1688 17.1289C68.2821 16.9656 67.2905 16.8839 66.1938 16.8839C64.3271 16.8839 62.6121 17.2223 61.0488 17.8989C59.4855 18.5523 58.1321 19.4623 56.9888 20.6289C55.8455 21.7723 54.9471 23.1139 54.2938 24.6539C53.6638 26.1706 53.3488 27.8039 53.3488 29.5539V29.6239C53.3488 31.4439 53.6638 33.1239 54.2938 34.6639C54.9238 36.2039 55.7988 37.5339 56.9188 38.6539C58.0621 39.7739 59.4155 40.6489 60.9788 41.2789C62.5655 41.9089 64.3155 42.2239 66.2288 42.2239C68.4688 42.2239 70.4521 41.8506 72.1788 41.1039C73.9288 40.3339 75.4338 39.4123 76.6938 38.3389ZM104.35 17.3039H98.5401L92.1351 34.5589L85.7301 17.3039H79.7801L89.6851 41.9789H94.4451L104.35 17.3039ZM136.228 41.8039V36.9039H124.013V17.3039H118.623V41.8039H136.228ZM145.928 41.8039V17.3039H140.538V41.8039H145.928ZM174.521 17.3039H168.711L162.306 34.5589L155.901 17.3039H149.951L159.856 41.9789H164.616L174.521 17.3039ZM196.956 41.8039V37.0089H183.656V31.8639H195.206V27.0689H183.656V22.0989H196.781V17.3039H178.301V41.8039H196.956Z" fill="white"/>
<rect x="1.5" y="1.5" width="223.864" height="59" rx="8.5" stroke="white" stroke-width="3"/>
</svg>
