<svg width="227" height="62" viewBox="0 0 227 62" fill="none" xmlns="http://www.w3.org/2000/svg">
<rect x="1.5" y="1.5" width="223.864" height="59" rx="8.5" fill="white" stroke="#314486" stroke-width="3"/>
<path d="M32.5289 17.5H51.1839V22.4H37.9189V27.615H49.6089V32.515H37.9189V42H32.5289V17.5ZM67.2926 42.42C65.3793 42.42 63.6293 42.105 62.0426 41.475C60.4793 40.845 59.126 39.97 57.9826 38.85C56.8626 37.73 55.9876 36.4 55.3576 34.86C54.7276 33.32 54.4126 31.64 54.4126 29.82V29.75C54.4126 28 54.7276 26.3667 55.3576 24.85C56.011 23.31 56.9093 21.9683 58.0526 20.825C59.196 19.6583 60.5493 18.7483 62.1126 18.095C63.676 17.4183 65.391 17.08 67.2576 17.08C68.3543 17.08 69.346 17.1617 70.2326 17.325C71.1426 17.465 71.9826 17.675 72.7526 17.955C73.5226 18.235 74.246 18.585 74.9226 19.005C75.5993 19.425 76.2526 19.9033 76.8826 20.44L73.4876 24.535C73.021 24.1383 72.5543 23.7883 72.0876 23.485C71.621 23.1817 71.131 22.925 70.6176 22.715C70.1276 22.505 69.591 22.3417 69.0076 22.225C68.4243 22.1083 67.7826 22.05 67.0826 22.05C66.1026 22.05 65.181 22.26 64.3176 22.68C63.4776 23.0767 62.731 23.625 62.0776 24.325C61.4476 25.0017 60.946 25.8067 60.5726 26.74C60.2226 27.65 60.0476 28.63 60.0476 29.68V29.75C60.0476 30.87 60.2226 31.9083 60.5726 32.865C60.946 33.7983 61.4593 34.615 62.1126 35.315C62.7893 36.015 63.571 36.5633 64.4576 36.96C65.3676 37.3333 66.371 37.52 67.4676 37.52C69.4743 37.52 71.166 37.03 72.5426 36.05V32.55H67.1176V27.895H77.7576V38.535C76.4976 39.6083 74.9926 40.53 73.2426 41.3C71.516 42.0467 69.5326 42.42 67.2926 42.42ZM79.9552 17.5H85.9052L92.3102 34.755L98.7152 17.5H104.525L94.6202 42.175H89.8602L79.9552 17.5ZM117.226 17.5H122.616V37.1H134.831V42H117.226V17.5ZM139.141 17.5H144.531V42H139.141V17.5ZM148.554 17.5H154.504L160.909 34.755L167.314 17.5H173.124L163.219 42.175H158.459L148.554 17.5ZM176.904 17.5H195.384V22.295H182.259V27.265H193.809V32.06H182.259V37.205H195.559V42H176.904V17.5Z" fill="#314486"/>
</svg>
