<svg width="17" height="16" viewBox="0 0 17 16" fill="none" xmlns="http://www.w3.org/2000/svg">
<g clip-path="url(#clip0)">
<path d="M14.8281 1.23836H14.085V0H12.8467V1.23836H4.67351V0H3.43515V1.23836H2.69213C1.66789 1.23836 0.834595 2.07165 0.834595 3.0959V13.9935C0.834595 15.0177 1.66789 15.851 2.69213 15.851H14.8281C15.8523 15.851 16.6856 15.0177 16.6856 13.9935V3.0959C16.6856 2.07165 15.8523 1.23836 14.8281 1.23836ZM15.4472 13.9935C15.4472 14.3349 15.1695 14.6126 14.8281 14.6126H2.69213C2.35072 14.6126 2.07295 14.3349 2.07295 13.9935V5.82029H15.4472V13.9935ZM15.4472 4.58193H2.07295V3.0959C2.07295 2.75448 2.35072 2.47672 2.69213 2.47672H3.43515V3.71508H4.67351V2.47672H12.8467V3.71508H14.085V2.47672H14.8281C15.1695 2.47672 15.4472 2.75448 15.4472 3.0959V4.58193Z" fill="#919191"/>
<path d="M4.42586 7.12054H3.1875V8.3589H4.42586V7.12054Z" fill="#919191"/>
<path d="M6.90254 7.12054H5.66418V8.3589H6.90254V7.12054Z" fill="#919191"/>
<path d="M9.37929 7.12054H8.14093V8.3589H9.37929V7.12054Z" fill="#919191"/>
<path d="M11.856 7.12054H10.6176V8.3589H11.856V7.12054Z" fill="#919191"/>
<path d="M14.3327 7.12054H13.0944V8.3589H14.3327V7.12054Z" fill="#919191"/>
<path d="M4.42586 9.59729H3.1875V10.8356H4.42586V9.59729Z" fill="#919191"/>
<path d="M6.90254 9.59729H5.66418V10.8356H6.90254V9.59729Z" fill="#919191"/>
<path d="M9.37929 9.59729H8.14093V10.8356H9.37929V9.59729Z" fill="#919191"/>
<path d="M11.856 9.59729H10.6176V10.8356H11.856V9.59729Z" fill="#919191"/>
<path d="M4.42586 12.074H3.1875V13.3123H4.42586V12.074Z" fill="#919191"/>
<path d="M6.90254 12.074H5.66418V13.3123H6.90254V12.074Z" fill="#919191"/>
<path d="M9.37929 12.074H8.14093V13.3123H9.37929V12.074Z" fill="#919191"/>
<path d="M11.856 12.074H10.6176V13.3123H11.856V12.074Z" fill="#919191"/>
<path d="M14.3327 9.59729H13.0944V10.8356H14.3327V9.59729Z" fill="#919191"/>
</g>
<defs>
<clipPath id="clip0">
<rect width="15.851" height="15.851" fill="white" transform="translate(0.834595)"/>
</clipPath>
</defs>
</svg>
