<svg width="22" height="22" viewBox="0 0 22 22" fill="none" xmlns="http://www.w3.org/2000/svg">
<path d="M17.5667 0.9H4.33333C3.42276 0.9 2.54947 1.26173 1.9056 1.9056C1.26173 2.54947 0.9 3.42276 0.9 4.33333V17.6667C0.9 18.5772 1.26173 19.4505 1.9056 20.0944C2.54947 20.7383 3.42276 21.1 4.33333 21.1H17.6667C18.5772 21.1 19.4505 20.7383 20.0944 20.0944C20.7383 19.4505 21.1 18.5772 21.1 17.6667V4.33333C21.1 3.42276 20.7383 2.54947 20.0944 1.9056C19.4505 1.26173 18.5772 0.9 17.6667 0.9H17.5667ZM19.2333 17.6667C19.2333 18.0822 19.0683 18.4807 18.7745 18.7745C18.4807 19.0683 18.0822 19.2333 17.6667 19.2333H4.33333C3.91783 19.2333 3.51934 19.0683 3.22553 18.7745C2.93173 18.4807 2.76667 18.0822 2.76667 17.6667V4.33333C2.76667 3.91783 2.93173 3.51934 3.22553 3.22553C3.51934 2.93173 3.91783 2.76667 4.33333 2.76667H17.6667C18.0822 2.76667 18.4807 2.93173 18.7745 3.22553C19.0683 3.51934 19.2333 3.91783 19.2333 4.33333V17.6667Z" fill="white" stroke="white" stroke-width="0.2"/>
<path d="M11 5.9C9.99132 5.9 9.00528 6.19911 8.16659 6.7595C7.3279 7.3199 6.67422 8.11641 6.28822 9.04831C5.90221 9.98022 5.80121 11.0057 5.998 11.995C6.19478 12.9843 6.68051 13.893 7.39376 14.6062C8.10701 15.3195 9.01574 15.8052 10.005 16.002C10.9943 16.1988 12.0198 16.0978 12.9517 15.7118C13.8836 15.3258 14.6801 14.6721 15.2405 13.8334C15.8009 12.9947 16.1 12.0087 16.1 11C16.1 9.6474 15.5627 8.35019 14.6062 7.39376C13.6498 6.43732 12.3526 5.9 11 5.9ZM11 14.2333C10.3605 14.2333 9.73538 14.0437 9.20366 13.6884C8.67194 13.3331 8.25751 12.8282 8.01279 12.2373C7.76807 11.6465 7.70404 10.9964 7.8288 10.3692C7.95356 9.742 8.2615 9.16588 8.71369 8.71369C9.16588 8.2615 9.74201 7.95355 10.3692 7.82879C10.9964 7.70404 11.6465 7.76807 12.2373 8.01279C12.8282 8.25751 13.3331 8.67194 13.6884 9.20366C14.0437 9.73538 14.2333 10.3605 14.2333 11C14.2333 11.8575 13.8927 12.6799 13.2863 13.2863C12.6799 13.8927 11.8575 14.2333 11 14.2333Z" fill="white" stroke="white" stroke-width="0.2"/>
<path d="M16.4167 6.9335C17.1623 6.9335 17.7667 6.32908 17.7667 5.5835C17.7667 4.83791 17.1623 4.2335 16.4167 4.2335C15.6712 4.2335 15.0667 4.83791 15.0667 5.5835C15.0667 6.32908 15.6712 6.9335 16.4167 6.9335Z" fill="white" stroke="white" stroke-width="0.2"/>
</svg>
