<svg width="16" height="18" viewBox="0 0 16 18" fill="none" xmlns="http://www.w3.org/2000/svg">
<path d="M15.6639 7.45132C15.6639 3.3426 12.3213 0 8.21255 0C4.10383 0 0.76123 3.3426 0.76123 7.45132C0.76123 9.74125 1.80035 11.7921 3.43084 13.1601C2.58139 14.2317 2.11602 15.5448 2.11602 16.9348C2.11602 17.3087 2.41949 17.6122 2.79341 17.6122H13.6317C14.0056 17.6122 14.3091 17.3087 14.3091 16.9348C14.3091 15.5448 13.8437 14.2317 12.9943 13.1601C14.6251 11.7921 15.6639 9.74125 15.6639 7.45132ZM2.11602 7.45132C2.11602 4.08976 4.85099 1.35479 8.21255 1.35479C11.5741 1.35479 14.3091 4.08976 14.3091 7.45132C14.3091 10.8129 11.5741 13.5479 8.21255 13.5479C4.85099 13.5479 2.11602 10.8129 2.11602 7.45132ZM12.9065 16.2574H3.51856C3.63981 15.4015 3.99409 14.6039 4.54515 13.9336C5.62864 14.549 6.87978 14.9026 8.21255 14.9026C9.54566 14.9026 10.7965 14.549 11.88 13.9336C12.431 14.6039 12.7853 15.4015 12.9065 16.2574Z" fill="#919191"/>
<path d="M8.21259 10.8383C10.0802 10.8383 11.5996 9.31887 11.5996 7.4513C11.5996 5.58372 10.0802 4.06433 8.21259 4.06433C6.34501 4.06433 4.82562 5.58372 4.82562 7.4513C4.82562 9.31887 6.34501 10.8383 8.21259 10.8383ZM8.21259 5.41912C9.33333 5.41912 10.2448 6.33055 10.2448 7.4513C10.2448 8.57204 9.33333 9.48347 8.21259 9.48347C7.09184 9.48347 6.18041 8.57204 6.18041 7.4513C6.18041 6.33055 7.09184 5.41912 8.21259 5.41912Z" fill="#919191"/>
<path d="M7.53518 3.38695H8.88997C9.26389 3.38695 9.56736 3.08348 9.56736 2.70956C9.56736 2.33564 9.26389 2.03217 8.88997 2.03217H7.53518C7.16126 2.03217 6.85779 2.33564 6.85779 2.70956C6.85779 3.08348 7.16126 3.38695 7.53518 3.38695Z" fill="#919191"/>
</svg>
