<svg width="512" height="49" viewBox="0 0 512 49" fill="none" xmlns="http://www.w3.org/2000/svg">
<path d="M0 8.50002H2.96L20.6003 30.94V8.50002H23.6803V36.5H21.1603L3.08 13.54V36.5H0V8.50002ZM44.6013 36.98C42.4683 36.98 40.5213 36.5933 38.7613 35.82C37.0283 35.0467 35.5353 34.0067 34.2813 32.7C33.0283 31.3667 32.0553 29.8333 31.3613 28.1C30.6953 26.34 30.3613 24.5 30.3613 22.58V22.5C30.3613 20.58 30.7083 18.74 31.4013 16.98C32.0953 15.22 33.0683 13.6867 34.3213 12.38C35.5753 11.0467 37.0813 9.99332 38.8413 9.22002C40.6013 8.42002 42.5483 8.02002 44.6813 8.02002C46.8153 8.02002 48.7483 8.40672 50.4813 9.18002C52.2413 9.95332 53.7483 11.0067 55.0013 12.34C56.2553 13.6467 57.2153 15.18 57.8813 16.94C58.5753 18.6733 58.9213 20.5 58.9213 22.42V22.5C58.9213 24.42 58.5753 26.26 57.8813 28.02C57.1883 29.78 56.2153 31.3267 54.9613 32.66C53.7083 33.9667 52.2013 35.02 50.4413 35.82C48.6813 36.5933 46.7353 36.98 44.6013 36.98ZM44.6813 34.06C46.2813 34.06 47.7483 33.7667 49.0813 33.18C50.4413 32.5667 51.6013 31.74 52.5613 30.7C53.5213 29.66 54.2683 28.4467 54.8013 27.06C55.3613 25.6733 55.6413 24.18 55.6413 22.58V22.5C55.6413 20.9 55.3613 19.4067 54.8013 18.02C54.2683 16.6067 53.5083 15.38 52.5213 14.34C51.5353 13.3 50.3613 12.4733 49.0013 11.86C47.6683 11.2467 46.2013 10.94 44.6013 10.94C43.0013 10.94 41.5213 11.2467 40.1613 11.86C38.8283 12.4467 37.6813 13.26 36.7213 14.3C35.7613 15.34 35.0013 16.5533 34.4413 17.94C33.9083 19.3267 33.6413 20.82 33.6413 22.42V22.5C33.6413 24.1 33.9083 25.6067 34.4413 27.02C35.0013 28.4067 35.7753 29.62 36.7613 30.66C37.7483 31.7 38.9083 32.5267 40.2413 33.14C41.6013 33.7533 43.0813 34.06 44.6813 34.06ZM61.5453 8.50002H65.0653L75.0253 32.62L85.0253 8.50002H88.4253L76.3853 36.7H73.5853L61.5453 8.50002ZM105.304 36.98C103.171 36.98 101.224 36.5933 99.4643 35.82C97.7313 35.0467 96.2383 34.0067 94.9843 32.7C93.7313 31.3667 92.7583 29.8333 92.0643 28.1C91.3983 26.34 91.0643 24.5 91.0643 22.58V22.5C91.0643 20.58 91.4113 18.74 92.1043 16.98C92.7983 15.22 93.7713 13.6867 95.0243 12.38C96.2783 11.0467 97.7843 9.99332 99.5443 9.22002C101.304 8.42002 103.251 8.02002 105.384 8.02002C107.518 8.02002 109.451 8.40672 111.184 9.18002C112.944 9.95332 114.451 11.0067 115.704 12.34C116.958 13.6467 117.918 15.18 118.584 16.94C119.278 18.6733 119.624 20.5 119.624 22.42V22.5C119.624 24.42 119.278 26.26 118.584 28.02C117.891 29.78 116.918 31.3267 115.664 32.66C114.411 33.9667 112.904 35.02 111.144 35.82C109.384 36.5933 107.438 36.98 105.304 36.98ZM105.384 34.06C106.984 34.06 108.451 33.7667 109.784 33.18C111.144 32.5667 112.304 31.74 113.264 30.7C114.224 29.66 114.971 28.4467 115.504 27.06C116.064 25.6733 116.344 24.18 116.344 22.58V22.5C116.344 20.9 116.064 19.4067 115.504 18.02C114.971 16.6067 114.211 15.38 113.224 14.34C112.238 13.3 111.064 12.4733 109.704 11.86C108.371 11.2467 106.904 10.94 105.304 10.94C103.704 10.94 102.224 11.2467 100.864 11.86C99.5313 12.4467 98.3843 13.26 97.4243 14.3C96.4643 15.34 95.7043 16.5533 95.1443 17.94C94.6113 19.3267 94.3443 20.82 94.3443 22.42V22.5C94.3443 24.1 94.6113 25.6067 95.1443 27.02C95.7043 28.4067 96.4783 29.62 97.4643 30.66C98.4513 31.7 99.6113 32.5267 100.944 33.14C102.304 33.7533 103.784 34.06 105.384 34.06ZM151.081 36.98C149.054 36.98 147.188 36.6067 145.481 35.86C143.774 35.1133 142.294 34.1 141.041 32.82C139.788 31.5133 138.801 29.98 138.081 28.22C137.388 26.46 137.041 24.58 137.041 22.58V22.5C137.041 20.5267 137.388 18.66 138.081 16.9C138.801 15.14 139.788 13.6067 141.041 12.3C142.294 10.9667 143.788 9.92672 145.521 9.18002C147.254 8.40672 149.148 8.02002 151.201 8.02002C152.481 8.02002 153.628 8.12672 154.641 8.34002C155.681 8.55332 156.641 8.86002 157.521 9.26002C158.401 9.63332 159.214 10.1 159.961 10.66C160.708 11.1933 161.428 11.7933 162.121 12.46L159.961 14.78C158.761 13.66 157.468 12.74 156.081 12.02C154.721 11.3 153.081 10.94 151.161 10.94C149.614 10.94 148.174 11.2333 146.841 11.82C145.534 12.4067 144.388 13.22 143.401 14.26C142.441 15.3 141.681 16.5267 141.121 17.94C140.588 19.3267 140.321 20.82 140.321 22.42V22.5C140.321 24.1267 140.588 25.6467 141.121 27.06C141.681 28.4467 142.441 29.66 143.401 30.7C144.388 31.74 145.534 32.5667 146.841 33.18C148.174 33.7667 149.614 34.06 151.161 34.06C153.081 34.06 154.734 33.7133 156.121 33.02C157.508 32.3 158.868 31.3 160.201 30.02L162.281 32.06C161.561 32.8067 160.801 33.4867 160.001 34.1C159.228 34.6867 158.388 35.1933 157.481 35.62C156.574 36.0467 155.601 36.38 154.561 36.62C153.521 36.86 152.361 36.98 151.081 36.98ZM179.012 36.94C177.279 36.94 175.692 36.6867 174.252 36.18C172.839 35.6467 171.612 34.8733 170.572 33.86C169.559 32.82 168.772 31.54 168.212 30.02C167.652 28.5 167.372 26.7533 167.372 24.78V8.50002H170.532V24.58C170.532 27.62 171.292 29.9533 172.812 31.58C174.332 33.2067 176.426 34.02 179.092 34.02C181.679 34.02 183.732 33.2467 185.252 31.7C186.772 30.1533 187.532 27.8467 187.532 24.78V8.50002H190.692V24.54C190.692 26.5933 190.412 28.3933 189.852 29.94C189.292 31.4867 188.492 32.78 187.452 33.82C186.439 34.86 185.212 35.6467 183.772 36.18C182.359 36.6867 180.772 36.94 179.012 36.94ZM198.164 8.50002H210.204C211.937 8.50002 213.47 8.75332 214.804 9.26002C216.164 9.74002 217.284 10.42 218.164 11.3C218.857 11.9933 219.39 12.8067 219.764 13.74C220.137 14.6733 220.324 15.7 220.324 16.82V16.9C220.324 18.0733 220.137 19.1267 219.764 20.06C219.39 20.9667 218.857 21.7667 218.164 22.46C217.497 23.1267 216.697 23.6867 215.764 24.14C214.83 24.5667 213.817 24.8733 212.724 25.06L221.324 36.5H217.444L209.324 25.62H201.324V36.5H198.164V8.50002ZM209.924 22.78C210.964 22.78 211.924 22.6467 212.804 22.38C213.684 22.1133 214.444 21.74 215.084 21.26C215.724 20.7533 216.217 20.1533 216.564 19.46C216.937 18.74 217.124 17.9267 217.124 17.02V16.94C217.124 15.2067 216.497 13.86 215.244 12.9C213.99 11.9133 212.23 11.42 209.964 11.42H201.324V22.78H209.924ZM236.67 36.9C234.43 36.9 232.377 36.54 230.51 35.82C228.67 35.0733 226.91 33.94 225.23 32.42L227.19 30.1C228.657 31.4333 230.137 32.4333 231.63 33.1C233.123 33.74 234.843 34.06 236.79 34.06C238.683 34.06 240.19 33.62 241.31 32.74C242.457 31.8333 243.03 30.6867 243.03 29.3V29.22C243.03 28.58 242.923 28.0067 242.71 27.5C242.497 26.9667 242.123 26.4867 241.59 26.06C241.057 25.6333 240.31 25.2467 239.35 24.9C238.417 24.5533 237.217 24.22 235.75 23.9C234.15 23.5533 232.75 23.1533 231.55 22.7C230.377 22.2467 229.403 21.7 228.63 21.06C227.857 20.42 227.283 19.6733 226.91 18.82C226.537 17.9667 226.35 16.9667 226.35 15.82V15.74C226.35 14.6467 226.577 13.6333 227.03 12.7C227.483 11.7667 228.123 10.9667 228.95 10.3C229.777 9.60672 230.75 9.07332 231.87 8.70002C232.99 8.30002 234.217 8.10002 235.55 8.10002C237.603 8.10002 239.39 8.39332 240.91 8.98002C242.457 9.54002 243.95 10.3933 245.39 11.54L243.55 13.98C242.243 12.9133 240.923 12.14 239.59 11.66C238.283 11.18 236.91 10.94 235.47 10.94C233.63 10.94 232.177 11.38 231.11 12.26C230.043 13.1133 229.51 14.18 229.51 15.46V15.54C229.51 16.2067 229.617 16.8067 229.83 17.34C230.043 17.8467 230.43 18.3267 230.99 18.78C231.55 19.2067 232.323 19.6067 233.31 19.98C234.297 20.3267 235.563 20.66 237.11 20.98C240.23 21.6733 242.523 22.6333 243.99 23.86C245.483 25.0867 246.23 26.7667 246.23 28.9V28.98C246.23 30.18 245.99 31.2733 245.51 32.26C245.03 33.22 244.363 34.0467 243.51 34.74C242.683 35.4333 241.683 35.9667 240.51 36.34C239.337 36.7133 238.057 36.9 236.67 36.9ZM265.656 36.98C263.523 36.98 261.576 36.5933 259.816 35.82C258.083 35.0467 256.589 34.0067 255.336 32.7C254.083 31.3667 253.109 29.8333 252.416 28.1C251.749 26.34 251.416 24.5 251.416 22.58V22.5C251.416 20.58 251.763 18.74 252.456 16.98C253.149 15.22 254.123 13.6867 255.376 12.38C256.629 11.0467 258.136 9.99332 259.896 9.22002C261.656 8.42002 263.603 8.02002 265.736 8.02002C267.869 8.02002 269.803 8.40672 271.536 9.18002C273.296 9.95332 274.803 11.0067 276.056 12.34C277.309 13.6467 278.269 15.18 278.936 16.94C279.629 18.6733 279.976 20.5 279.976 22.42V22.5C279.976 24.42 279.629 26.26 278.936 28.02C278.243 29.78 277.269 31.3267 276.016 32.66C274.763 33.9667 273.256 35.02 271.496 35.82C269.736 36.5933 267.789 36.98 265.656 36.98ZM265.736 34.06C267.336 34.06 268.803 33.7667 270.136 33.18C271.496 32.5667 272.656 31.74 273.616 30.7C274.576 29.66 275.323 28.4467 275.856 27.06C276.416 25.6733 276.696 24.18 276.696 22.58V22.5C276.696 20.9 276.416 19.4067 275.856 18.02C275.323 16.6067 274.563 15.38 273.576 14.34C272.589 13.3 271.416 12.4733 270.056 11.86C268.723 11.2467 267.256 10.94 265.656 10.94C264.056 10.94 262.576 11.2467 261.216 11.86C259.883 12.4467 258.736 13.26 257.776 14.3C256.816 15.34 256.056 16.5533 255.496 17.94C254.963 19.3267 254.696 20.82 254.696 22.42V22.5C254.696 24.1 254.963 25.6067 255.496 27.02C256.056 28.4067 256.829 29.62 257.816 30.66C258.803 31.7 259.963 32.5267 261.296 33.14C262.656 33.7533 264.136 34.06 265.736 34.06Z" fill="white"/>
<path d="M501.86 2H322.86C318.166 2 314.36 5.80558 314.36 10.5V38.5C314.36 43.1944 318.166 47 322.86 47H501.86C506.555 47 510.36 43.1944 510.36 38.5V10.5C510.36 5.80558 506.555 2 501.86 2Z" fill="white" stroke="white" stroke-width="3"/>
<path d="M331.39 11.0001H350.045V15.9001H336.78V21.1151H348.47V26.0151H336.78V35.5001H331.39V11.0001ZM366.154 35.9201C364.24 35.9201 362.49 35.6051 360.904 34.9751C359.34 34.3451 357.987 33.4701 356.844 32.3501C355.724 31.2301 354.849 29.9001 354.219 28.3601C353.589 26.8201 353.274 25.1401 353.274 23.3201V23.2501C353.274 21.5001 353.589 19.8668 354.219 18.3501C354.872 16.8101 355.77 15.4684 356.914 14.3251C358.057 13.1584 359.41 12.2484 360.974 11.5951C362.537 10.9184 364.252 10.5801 366.119 10.5801C367.215 10.5801 368.207 10.6618 369.094 10.8251C370.004 10.9651 370.844 11.1751 371.614 11.4551C372.384 11.7351 373.107 12.0851 373.784 12.5051C374.46 12.9251 375.114 13.4034 375.744 13.9401L372.349 18.0351C371.882 17.6384 371.415 17.2884 370.949 16.9851C370.482 16.6818 369.992 16.4251 369.479 16.2151C368.989 16.0051 368.452 15.8418 367.869 15.7251C367.285 15.6084 366.644 15.5501 365.944 15.5501C364.964 15.5501 364.042 15.7601 363.179 16.1801C362.339 16.5768 361.592 17.1251 360.939 17.8251C360.309 18.5018 359.807 19.3068 359.434 20.2401C359.084 21.1501 358.909 22.1301 358.909 23.1801V23.2501C358.909 24.3701 359.084 25.4084 359.434 26.3651C359.807 27.2984 360.32 28.1151 360.974 28.8151C361.65 29.5151 362.432 30.0634 363.319 30.4601C364.229 30.8334 365.232 31.0201 366.329 31.0201C368.335 31.0201 370.027 30.5301 371.404 29.5501V26.0501H365.979V21.3951H376.619V32.0351C375.359 33.1084 373.854 34.0301 372.104 34.8001C370.377 35.5468 368.394 35.9201 366.154 35.9201ZM378.816 11.0001H384.766L391.171 28.2551L397.576 11.0001H403.386L393.481 35.6751H388.721L378.816 11.0001ZM416.087 11.0001H421.477V30.6001H433.692V35.5001H416.087V11.0001ZM438.002 11.0001H443.392V35.5001H438.002V11.0001ZM447.415 11.0001H453.365L459.77 28.2551L466.175 11.0001H471.985L462.08 35.6751H457.32L447.415 11.0001ZM475.765 11.0001H494.245V15.7951H481.12V20.7651H492.67V25.5601H481.12V30.7051H494.42V35.5001H475.765V11.0001Z" fill="#023A78"/>
</svg>
