<svg width="537" height="49" viewBox="0 0 537 49" fill="none" xmlns="http://www.w3.org/2000/svg">
<path d="M0 6.54696H3.31971L23.1037 32.1174V6.54696H26.558V38.453H23.7318L3.45429 12.2901V38.453H0V6.54696ZM50.0214 39C47.6292 39 45.4456 38.5594 43.4717 37.6782C41.5281 36.797 39.8537 35.6119 38.4473 34.1229C37.042 32.6036 35.9508 30.8563 35.1724 28.8812C34.4255 26.8757 34.0509 24.779 34.0509 22.5912V22.5C34.0509 20.3122 34.4401 18.2155 35.2173 16.2099C35.9956 14.2044 37.0869 12.4572 38.4921 10.9682C39.8985 9.44893 41.5876 8.24858 43.5614 7.3674C45.5353 6.4558 47.7189 6 50.1111 6C52.5045 6 54.6724 6.44065 56.616 7.32182C58.5898 8.203 60.28 9.40335 61.6853 10.9227C63.0916 12.4116 64.1683 14.1588 64.9152 16.1644C65.6936 18.1395 66.0816 20.221 66.0816 22.4088V22.5C66.0816 24.6878 65.6936 26.7845 64.9152 28.7901C64.138 30.7956 63.0468 32.558 61.6404 34.0773C60.2351 35.5663 58.545 36.7666 56.5711 37.6782C54.5972 38.5594 52.4147 39 50.0214 39ZM50.1111 35.6727C51.9056 35.6727 53.5508 35.3384 55.0458 34.6699C56.5711 33.971 57.8721 33.029 58.9487 31.8439C60.0254 30.6588 60.8632 29.2763 61.4609 27.6961C62.089 26.116 62.403 24.4144 62.403 22.5912V22.5C62.403 20.6768 62.089 18.9752 61.4609 17.395C60.8632 15.7846 60.0108 14.3867 58.9039 13.2017C57.798 12.0166 56.4814 11.0745 54.9561 10.3757C53.4611 9.67683 51.8158 9.32735 50.0214 9.32735C48.227 9.32735 46.5671 9.67683 45.0418 10.3757C43.5468 11.0442 42.2605 11.971 41.1838 13.1561C40.1071 14.3412 39.2548 15.7237 38.6267 17.3039C38.0289 18.884 37.7295 20.5856 37.7295 22.4088V22.5C37.7295 24.3232 38.0289 26.0401 38.6267 27.6506C39.2548 29.2307 40.1228 30.6133 41.2287 31.7983C42.3356 32.9834 43.6366 33.9255 45.1316 34.6243C46.6568 35.3232 48.3167 35.6727 50.1111 35.6727ZM69.0245 6.54696H72.9723L84.1426 34.0318L95.3579 6.54696H99.1711L85.6679 38.6809H82.5276L69.0245 6.54696ZM118.101 39C115.709 39 113.525 38.5594 111.552 37.6782C109.608 36.797 107.934 35.6119 106.527 34.1229C105.122 32.6036 104.031 30.8563 103.252 28.8812C102.505 26.8757 102.131 24.779 102.131 22.5912V22.5C102.131 20.3122 102.52 18.2155 103.297 16.2099C104.075 14.2044 105.167 12.4572 106.572 10.9682C107.978 9.44893 109.667 8.24858 111.641 7.3674C113.615 6.4558 115.799 6 118.191 6C120.584 6 122.752 6.44065 124.696 7.32182C126.67 8.203 128.36 9.40335 129.765 10.9227C131.171 12.4116 132.248 14.1588 132.995 16.1644C133.773 18.1395 134.161 20.221 134.161 22.4088V22.5C134.161 24.6878 133.773 26.7845 132.995 28.7901C132.218 30.7956 131.127 32.558 129.72 34.0773C128.315 35.5663 126.625 36.7666 124.651 37.6782C122.677 38.5594 120.495 39 118.101 39ZM118.191 35.6727C119.985 35.6727 121.631 35.3384 123.126 34.6699C124.651 33.971 125.952 33.029 127.029 31.8439C128.105 30.6588 128.943 29.2763 129.541 27.6961C130.169 26.116 130.483 24.4144 130.483 22.5912V22.5C130.483 20.6768 130.169 18.9752 129.541 17.395C128.943 15.7846 128.091 14.3867 126.984 13.2017C125.878 12.0166 124.561 11.0745 123.036 10.3757C121.541 9.67683 119.896 9.32735 118.101 9.32735C116.307 9.32735 114.647 9.67683 113.122 10.3757C111.627 11.0442 110.34 11.971 109.264 13.1561C108.187 14.3412 107.335 15.7237 106.707 17.3039C106.109 18.884 105.809 20.5856 105.809 22.4088V22.5C105.809 24.3232 106.109 26.0401 106.707 27.6506C107.335 29.2307 108.203 30.6133 109.309 31.7983C110.415 32.9834 111.716 33.9255 113.211 34.6243C114.737 35.3232 116.397 35.6727 118.191 35.6727ZM169.441 39C167.168 39 165.075 38.5746 163.161 37.7238C161.246 36.8729 159.586 35.7182 158.181 34.2597C156.776 32.7707 155.669 31.0235 154.861 29.018C154.084 27.0124 153.695 24.8702 153.695 22.5912V22.5C153.695 20.2514 154.084 18.1243 154.861 16.1188C155.669 14.1133 156.776 12.3661 158.181 10.8771C159.586 9.35777 161.262 8.17269 163.206 7.32182C165.149 6.44065 167.273 6 169.576 6C171.011 6 172.298 6.12158 173.434 6.36464C174.6 6.6077 175.677 6.95718 176.664 7.41298C177.651 7.83836 178.563 8.37017 179.4 9.00829C180.238 9.61598 181.046 10.2997 181.823 11.0594L179.4 13.703C178.055 12.4268 176.604 11.3785 175.049 10.558C173.524 9.73757 171.684 9.32735 169.531 9.32735C167.796 9.32735 166.181 9.66156 164.686 10.3301C163.22 10.9987 161.935 11.9254 160.828 13.1105C159.751 14.2956 158.899 15.6934 158.271 17.3039C157.673 18.884 157.374 20.5856 157.374 22.4088V22.5C157.374 24.3536 157.673 26.0857 158.271 27.6961C158.899 29.2763 159.751 30.6588 160.828 31.8439C161.935 33.029 163.22 33.971 164.686 34.6699C166.181 35.3384 167.796 35.6727 169.531 35.6727C171.684 35.6727 173.538 35.2776 175.094 34.4876C176.649 33.6671 178.175 32.5276 179.67 31.0691L182.002 33.3936C181.195 34.2445 180.342 35.0194 179.445 35.7182C178.578 36.3868 177.636 36.964 176.619 37.4503C175.602 37.9365 174.511 38.3163 173.344 38.5898C172.178 38.8633 170.877 39 169.441 39ZM200.766 38.9544C198.823 38.9544 197.043 38.6658 195.428 38.0884C193.843 37.4807 192.467 36.5994 191.301 35.4448C190.165 34.2597 189.282 32.8011 188.654 31.0691C188.026 29.337 187.712 27.3466 187.712 25.0981V6.54696H191.256V24.8702C191.256 28.3343 192.108 30.9931 193.813 32.8467C195.518 34.7003 197.866 35.6271 200.856 35.6271C203.758 35.6271 206.06 34.7459 207.765 32.9834C209.47 31.221 210.322 28.5926 210.322 25.0981V6.54696H213.866V24.8246C213.866 27.1643 213.552 29.2154 212.924 30.9779C212.296 32.7404 211.399 34.2141 210.232 35.3992C209.096 36.5843 207.72 37.4807 206.105 38.0884C204.52 38.6658 202.74 38.9544 200.766 38.9544ZM222.246 6.54696H235.749C237.693 6.54696 239.412 6.8356 240.908 7.41298C242.433 7.95994 243.689 8.73481 244.676 9.73757C245.454 10.5276 246.051 11.4545 246.471 12.518C246.889 13.5815 247.099 14.7514 247.099 16.0276V16.1188C247.099 17.4558 246.889 18.6561 246.471 19.7196C246.051 20.7528 245.454 21.6644 244.676 22.4544C243.928 23.2141 243.031 23.8522 241.985 24.3688C240.937 24.855 239.801 25.2044 238.575 25.4171L248.22 38.453H243.869L234.762 26.0552H225.79V38.453H222.246V6.54696ZM235.435 22.8191C236.601 22.8191 237.678 22.6672 238.665 22.3633C239.652 22.0594 240.504 21.634 241.222 21.087C241.94 20.5096 242.493 19.8259 242.882 19.0359C243.3 18.2155 243.51 17.2887 243.51 16.2555V16.1644C243.51 14.1893 242.807 12.6547 241.402 11.5608C239.995 10.4364 238.021 9.87431 235.48 9.87431H225.79V22.8191H235.435ZM265.431 38.9088C262.919 38.9088 260.617 38.4986 258.523 37.6782C256.459 36.8273 254.485 35.5359 252.601 33.8039L254.799 31.1602C256.445 32.6795 258.104 33.819 259.779 34.5787C261.453 35.308 263.382 35.6727 265.566 35.6727C267.689 35.6727 269.379 35.1713 270.635 34.1685C271.922 33.1353 272.564 31.8288 272.564 30.2486V30.1575C272.564 29.4282 272.444 28.7749 272.205 28.1975C271.966 27.5898 271.547 27.0429 270.949 26.5566C270.351 26.0704 269.514 25.6299 268.437 25.2348C267.391 24.8397 266.045 24.4599 264.4 24.0953C262.605 23.7002 261.035 23.2444 259.689 22.7279C258.374 22.2114 257.281 21.5884 256.414 20.8591C255.547 20.1298 254.904 19.279 254.485 18.3066C254.067 17.3343 253.857 16.1948 253.857 14.8881V14.797C253.857 13.5511 254.112 12.3964 254.62 11.3329C255.128 10.2694 255.846 9.35777 256.773 8.59807C257.701 7.80805 258.792 7.20024 260.048 6.77486C261.304 6.31906 262.68 6.09116 264.175 6.09116C266.478 6.09116 268.482 6.42538 270.187 7.09392C271.922 7.73204 273.596 8.70438 275.211 10.011L273.147 12.7914C271.682 11.5759 270.201 10.6948 268.706 10.1478C267.24 9.60083 265.7 9.32735 264.085 9.32735C262.022 9.32735 260.392 9.82873 259.196 10.8315C257.999 11.8038 257.401 13.0193 257.401 14.4779V14.5691C257.401 15.3288 257.521 16.0125 257.76 16.6202C257.999 17.1976 258.433 17.7445 259.061 18.261C259.689 18.7473 260.556 19.2031 261.663 19.6285C262.77 20.0235 264.19 20.4033 265.925 20.768C269.424 21.558 271.996 22.6519 273.641 24.0497C275.315 25.4476 276.153 27.3619 276.153 29.7928V29.884C276.153 31.2514 275.884 32.4972 275.346 33.6215C274.807 34.7155 274.059 35.6575 273.103 36.4475C272.175 37.2375 271.053 37.8453 269.738 38.2707C268.422 38.6961 266.987 38.9088 265.431 38.9088ZM297.94 39C295.548 39 293.364 38.5594 291.39 37.6782C289.446 36.797 287.771 35.6119 286.366 34.1229C284.96 32.6036 283.868 30.8563 283.091 28.8812C282.343 26.8757 281.969 24.779 281.969 22.5912V22.5C281.969 20.3122 282.358 18.2155 283.136 16.2099C283.913 14.2044 285.005 12.4572 286.411 10.9682C287.816 9.44893 289.506 8.24858 291.48 7.3674C293.454 6.4558 295.637 6 298.03 6C300.422 6 302.591 6.44065 304.534 7.32182C306.508 8.203 308.198 9.40335 309.604 10.9227C311.009 12.4116 312.086 14.1588 312.834 16.1644C313.611 18.1395 314 20.221 314 22.4088V22.5C314 24.6878 313.611 26.7845 312.834 28.7901C312.056 30.7956 310.964 32.558 309.559 34.0773C308.153 35.5663 306.463 36.7666 304.489 37.6782C302.516 38.5594 300.332 39 297.94 39ZM298.03 35.6727C299.824 35.6727 301.469 35.3384 302.964 34.6699C304.489 33.971 305.79 33.029 306.867 31.8439C307.944 30.6588 308.782 29.2763 309.379 27.6961C310.007 26.116 310.321 24.4144 310.321 22.5912V22.5C310.321 20.6768 310.007 18.9752 309.379 17.395C308.782 15.7846 307.929 14.3867 306.822 13.2017C305.715 12.0166 304.4 11.0745 302.874 10.3757C301.38 9.67683 299.734 9.32735 297.94 9.32735C296.145 9.32735 294.485 9.67683 292.96 10.3757C291.465 11.0442 290.179 11.971 289.102 13.1561C288.025 14.3412 287.173 15.7237 286.545 17.3039C285.947 18.884 285.648 20.5856 285.648 22.4088V22.5C285.648 24.3232 285.947 26.0401 286.545 27.6506C287.173 29.2307 288.04 30.6133 289.147 31.7983C290.254 32.9834 291.555 33.9255 293.05 34.6243C294.575 35.3232 296.235 35.6727 298.03 35.6727Z" fill="white"/>
<path d="M526.86 2H347.86C343.166 2 339.36 5.80558 339.36 10.5V38.5C339.36 43.1944 343.166 47 347.86 47H526.86C531.555 47 535.36 43.1944 535.36 38.5V10.5C535.36 5.80558 531.555 2 526.86 2Z" fill="white" stroke="white" stroke-width="3"/>
<path d="M356.39 11.0001H375.045V15.9001H361.78V21.1151H373.47V26.0151H361.78V35.5001H356.39V11.0001ZM391.154 35.9201C389.24 35.9201 387.49 35.6051 385.904 34.9751C384.34 34.3451 382.987 33.4701 381.844 32.3501C380.724 31.2301 379.849 29.9001 379.219 28.3601C378.589 26.8201 378.274 25.1401 378.274 23.3201V23.2501C378.274 21.5001 378.589 19.8668 379.219 18.3501C379.872 16.8101 380.77 15.4684 381.914 14.3251C383.057 13.1584 384.41 12.2484 385.974 11.5951C387.537 10.9184 389.252 10.5801 391.119 10.5801C392.215 10.5801 393.207 10.6618 394.094 10.8251C395.004 10.9651 395.844 11.1751 396.614 11.4551C397.384 11.7351 398.107 12.0851 398.784 12.5051C399.46 12.9251 400.114 13.4034 400.744 13.9401L397.349 18.0351C396.882 17.6384 396.415 17.2884 395.949 16.9851C395.482 16.6818 394.992 16.4251 394.479 16.2151C393.989 16.0051 393.452 15.8418 392.869 15.7251C392.285 15.6084 391.644 15.5501 390.944 15.5501C389.964 15.5501 389.042 15.7601 388.179 16.1801C387.339 16.5768 386.592 17.1251 385.939 17.8251C385.309 18.5018 384.807 19.3068 384.434 20.2401C384.084 21.1501 383.909 22.1301 383.909 23.1801V23.2501C383.909 24.3701 384.084 25.4084 384.434 26.3651C384.807 27.2984 385.32 28.1151 385.974 28.8151C386.65 29.5151 387.432 30.0634 388.319 30.4601C389.229 30.8334 390.232 31.0201 391.329 31.0201C393.335 31.0201 395.027 30.5301 396.404 29.5501V26.0501H390.979V21.3951H401.619V32.0351C400.359 33.1084 398.854 34.0301 397.104 34.8001C395.377 35.5468 393.394 35.9201 391.154 35.9201ZM403.816 11.0001H409.766L416.171 28.2551L422.576 11.0001H428.386L418.481 35.6751H413.721L403.816 11.0001ZM441.087 11.0001H446.477V30.6001H458.692V35.5001H441.087V11.0001ZM463.002 11.0001H468.392V35.5001H463.002V11.0001ZM472.415 11.0001H478.365L484.77 28.2551L491.175 11.0001H496.985L487.08 35.6751H482.32L472.415 11.0001ZM500.765 11.0001H519.245V15.7951H506.12V20.7651H517.67V25.5601H506.12V30.7051H519.42V35.5001H500.765V11.0001Z" fill="#CB0000"/>
</svg>
