<svg width="678" height="213" viewBox="0 0 678 213" fill="none" xmlns="http://www.w3.org/2000/svg">
<path d="M31.6489 102.8H34.6089L47.3689 131H43.9689L40.6889 123.6H25.4489L22.1289 131H18.8889L31.6489 102.8ZM39.4489 120.72L33.0889 106.48L26.6889 120.72H39.4489ZM67.0905 131.48C64.8771 131.48 62.8905 131.107 61.1305 130.36C59.3971 129.613 57.9038 128.587 56.6505 127.28C55.4238 125.973 54.4771 124.453 53.8105 122.72C53.1705 120.96 52.8505 119.08 52.8505 117.08V117C52.8505 115.08 53.1838 113.253 53.8505 111.52C54.5438 109.76 55.5038 108.213 56.7305 106.88C57.9571 105.547 59.4238 104.493 61.1305 103.72C62.8638 102.92 64.7838 102.52 66.8905 102.52C68.0638 102.52 69.1305 102.6 70.0905 102.76C71.0771 102.92 71.9838 103.16 72.8105 103.48C73.6638 103.8 74.4505 104.2 75.1705 104.68C75.9172 105.133 76.6371 105.653 77.3305 106.24L75.2905 108.64C74.7571 108.16 74.1971 107.733 73.6105 107.36C73.0238 106.96 72.3838 106.627 71.6905 106.36C71.0238 106.067 70.2771 105.84 69.4505 105.68C68.6505 105.52 67.7571 105.44 66.7705 105.44C65.2238 105.44 63.7971 105.747 62.4905 106.36C61.1838 106.973 60.0638 107.8 59.1305 108.84C58.1971 109.88 57.4638 111.107 56.9305 112.52C56.3971 113.907 56.1305 115.373 56.1305 116.92V117C56.1305 118.68 56.3838 120.227 56.8905 121.64C57.4238 123.053 58.1705 124.28 59.1305 125.32C60.0905 126.36 61.2505 127.173 62.6105 127.76C63.9705 128.347 65.5038 128.64 67.2105 128.64C68.8105 128.64 70.3171 128.373 71.7305 127.84C73.1438 127.28 74.3305 126.613 75.2905 125.84V118.88H66.7705V116.04H78.3305V127.2C77.0238 128.373 75.4105 129.387 73.4905 130.24C71.5971 131.067 69.4638 131.48 67.0905 131.48ZM99.6577 131.48C97.5243 131.48 95.5777 131.093 93.8177 130.32C92.0843 129.547 90.591 128.507 89.3377 127.2C88.0843 125.867 87.111 124.333 86.4177 122.6C85.751 120.84 85.4177 119 85.4177 117.08V117C85.4177 115.08 85.7643 113.24 86.4577 111.48C87.151 109.72 88.1243 108.187 89.3777 106.88C90.631 105.547 92.1377 104.493 93.8977 103.72C95.6577 102.92 97.6043 102.52 99.7377 102.52C101.871 102.52 103.804 102.907 105.538 103.68C107.298 104.453 108.804 105.507 110.058 106.84C111.311 108.147 112.271 109.68 112.938 111.44C113.631 113.173 113.978 115 113.978 116.92V117C113.978 118.92 113.631 120.76 112.938 122.52C112.244 124.28 111.271 125.827 110.018 127.16C108.764 128.467 107.258 129.52 105.498 130.32C103.738 131.093 101.791 131.48 99.6577 131.48ZM99.7377 128.56C101.338 128.56 102.804 128.267 104.138 127.68C105.498 127.067 106.658 126.24 107.618 125.2C108.578 124.16 109.324 122.947 109.858 121.56C110.418 120.173 110.698 118.68 110.698 117.08V117C110.698 115.4 110.418 113.907 109.858 112.52C109.324 111.107 108.564 109.88 107.578 108.84C106.591 107.8 105.418 106.973 104.058 106.36C102.724 105.747 101.258 105.44 99.6577 105.44C98.0577 105.44 96.5777 105.747 95.2177 106.36C93.8843 106.947 92.7377 107.76 91.7777 108.8C90.8177 109.84 90.0577 111.053 89.4977 112.44C88.9643 113.827 88.6977 115.32 88.6977 116.92V117C88.6977 118.6 88.9643 120.107 89.4977 121.52C90.0577 122.907 90.831 124.12 91.8177 125.16C92.8043 126.2 93.9643 127.027 95.2977 127.64C96.6577 128.253 98.1377 128.56 99.7377 128.56ZM121.842 103H133.882C135.615 103 137.149 103.253 138.482 103.76C139.842 104.24 140.962 104.92 141.842 105.8C142.535 106.493 143.069 107.307 143.442 108.24C143.815 109.173 144.002 110.2 144.002 111.32V111.4C144.002 112.573 143.815 113.627 143.442 114.56C143.069 115.467 142.535 116.267 141.842 116.96C141.175 117.627 140.375 118.187 139.442 118.64C138.509 119.067 137.495 119.373 136.402 119.56L145.002 131H141.122L133.002 120.12H125.002V131H121.842V103ZM133.602 117.28C134.642 117.28 135.602 117.147 136.482 116.88C137.362 116.613 138.122 116.24 138.762 115.76C139.402 115.253 139.895 114.653 140.242 113.96C140.615 113.24 140.802 112.427 140.802 111.52V111.44C140.802 109.707 140.175 108.36 138.922 107.4C137.669 106.413 135.909 105.92 133.642 105.92H125.002V117.28H133.602ZM162.308 102.8H165.268L178.028 131H174.628L171.348 123.6H156.108L152.788 131H149.548L162.308 102.8ZM170.108 120.72L163.748 106.48L157.348 120.72H170.108ZM208.302 102.8H211.262L224.022 131H220.622L217.342 123.6H202.102L198.782 131H195.542L208.302 102.8ZM216.102 120.72L209.742 106.48L203.342 120.72H216.102ZM241.576 131H250.936V121.84H264.016V114.56H250.936V111H265.016V103H241.576V131ZM283.481 131.6C288.561 131.6 292.801 129.88 295.841 127.4V114.44H282.281V120.44H287.081V123.24C286.361 123.64 285.481 123.88 283.881 123.88C279.961 123.88 277.201 121.16 277.201 117.2V117.12C277.201 113.32 279.841 110.52 283.481 110.52C285.801 110.52 287.841 111.4 289.681 112.96L294.921 106.64C291.881 104 288.001 102.4 283.201 102.4C274.361 102.4 267.761 108.64 267.761 117V117.08C267.761 125.76 274.761 131.6 283.481 131.6ZM308.061 131.2H317.021L328.381 103H318.061L312.621 118.72L307.181 103H296.701L308.061 131.2ZM342.079 131H352.479C363.799 131 369.479 125.12 369.479 116.84V116.76C369.479 108.48 363.919 103 352.799 103H342.079V131ZM351.439 122.84V111.16H352.999C357.279 111.16 360.039 112.92 360.039 116.96V117.04C360.039 121.08 357.279 122.84 352.999 122.84H351.439ZM369.208 131H379.208L380.648 127.24H390.448L391.928 131H402.088L390.288 102.8H381.008L369.208 131ZM383.008 120.6L385.568 113.8L388.128 120.6H383.008ZM404.44 131H413.8V123.4H416.84C424.4 123.4 429.56 119.8 429.56 113.04V112.96C429.56 106.32 424.48 103 417.04 103H404.44V131ZM413.8 116.72V110.48H416.36C418.84 110.48 420.32 111.52 420.32 113.56V113.64C420.32 115.64 418.72 116.72 416.32 116.72H413.8ZM432.749 131H442.109V123.4H445.149C452.709 123.4 457.869 119.8 457.869 113.04V112.96C457.869 106.32 452.789 103 445.349 103H432.749V131ZM442.109 116.72V110.48H444.669C447.149 110.48 448.629 111.52 448.629 113.56V113.64C448.629 115.64 447.029 116.72 444.629 116.72H442.109ZM482.175 105.92H472.775V103H494.775V105.92H485.375V131H482.175V105.92ZM512.272 102.8H515.232L527.992 131H524.592L521.312 123.6H506.072L502.752 131H499.512L512.272 102.8ZM520.072 120.72L513.712 106.48L507.312 120.72H520.072ZM534.714 103H537.914L548.114 118.28L558.314 103H561.514V131H558.354V108.32L548.154 123.32H547.994L537.794 108.36V131H534.714V103ZM570.64 103H582.56C584.16 103 585.574 103.227 586.8 103.68C588.054 104.107 589.08 104.707 589.88 105.48C591.08 106.733 591.68 108.227 591.68 109.96V110.04C591.68 110.947 591.547 111.76 591.28 112.48C591.04 113.173 590.707 113.787 590.28 114.32C589.854 114.827 589.374 115.267 588.84 115.64C588.334 115.987 587.8 116.28 587.24 116.52C588.067 116.76 588.84 117.08 589.56 117.48C590.307 117.853 590.947 118.307 591.48 118.84C592.014 119.373 592.44 120.013 592.76 120.76C593.08 121.48 593.24 122.32 593.24 123.28V123.36C593.24 124.56 593 125.64 592.52 126.6C592.04 127.533 591.347 128.333 590.44 129C589.56 129.64 588.494 130.133 587.24 130.48C585.987 130.827 584.6 131 583.08 131H570.64V103ZM588.48 110.4C588.48 109.013 587.947 107.907 586.88 107.08C585.814 106.253 584.28 105.84 582.28 105.84H573.76V115.48H582.04C583.96 115.48 585.507 115.067 586.68 114.24C587.88 113.387 588.48 112.133 588.48 110.48V110.4ZM590.04 123.08C590.04 121.56 589.414 120.387 588.16 119.56C586.907 118.707 585.054 118.28 582.6 118.28H573.76V128.16H583.16C585.294 128.16 586.974 127.72 588.2 126.84C589.427 125.96 590.04 124.733 590.04 123.16V123.08ZM613.588 95.36L616.748 96.8L612.148 100.52H609.588L613.588 95.36ZM600.708 103H620.948V105.88H603.868V115.44H619.148V118.32H603.868V128.12H621.148V131H600.708V103ZM628.705 103H631.905L642.105 118.28L652.305 103H655.505V131H652.345V108.32L642.145 123.32H641.985L631.785 108.36V131H628.705V103ZM131.987 151H152.227V153.88H135.147V163.44H150.427V166.32H135.147V176.12H152.427V179H131.987V151ZM159.984 151H162.944L180.584 173.44V151H183.664V179H181.144L163.064 156.04V179H159.984V151ZM202.386 179.4C200.146 179.4 198.092 179.04 196.226 178.32C194.386 177.573 192.626 176.44 190.946 174.92L192.906 172.6C194.372 173.933 195.852 174.933 197.346 175.6C198.839 176.24 200.559 176.56 202.506 176.56C204.399 176.56 205.906 176.12 207.026 175.24C208.172 174.333 208.746 173.187 208.746 171.8V171.72C208.746 171.08 208.639 170.507 208.426 170C208.212 169.467 207.839 168.987 207.306 168.56C206.772 168.133 206.026 167.747 205.066 167.4C204.132 167.053 202.932 166.72 201.466 166.4C199.866 166.053 198.466 165.653 197.266 165.2C196.092 164.747 195.119 164.2 194.346 163.56C193.572 162.92 192.999 162.173 192.626 161.32C192.252 160.467 192.066 159.467 192.066 158.32V158.24C192.066 157.147 192.292 156.133 192.746 155.2C193.199 154.267 193.839 153.467 194.666 152.8C195.492 152.107 196.466 151.573 197.586 151.2C198.706 150.8 199.932 150.6 201.266 150.6C203.319 150.6 205.106 150.893 206.626 151.48C208.172 152.04 209.666 152.893 211.106 154.04L209.266 156.48C207.959 155.413 206.639 154.64 205.306 154.16C203.999 153.68 202.626 153.44 201.186 153.44C199.346 153.44 197.892 153.88 196.826 154.76C195.759 155.613 195.226 156.68 195.226 157.96V158.04C195.226 158.707 195.332 159.307 195.546 159.84C195.759 160.347 196.146 160.827 196.706 161.28C197.266 161.707 198.039 162.107 199.026 162.48C200.012 162.827 201.279 163.16 202.826 163.48C205.946 164.173 208.239 165.133 209.706 166.36C211.199 167.587 211.946 169.267 211.946 171.4V171.48C211.946 172.68 211.706 173.773 211.226 174.76C210.746 175.72 210.079 176.547 209.226 177.24C208.399 177.933 207.399 178.467 206.226 178.84C205.052 179.213 203.772 179.4 202.386 179.4ZM219.852 151H223.012V179H219.852V151ZM232.412 151H235.372L253.012 173.44V151H256.092V179H253.572L235.492 156.04V179H232.412V151ZM275.574 150.8H278.534L291.294 179H287.894L284.614 171.6H269.374L266.054 179H262.814L275.574 150.8ZM283.374 168.72L277.014 154.48L270.614 168.72H283.374ZM323.426 179.48C321.293 179.48 319.346 179.093 317.586 178.32C315.853 177.547 314.36 176.507 313.106 175.2C311.853 173.867 310.88 172.333 310.186 170.6C309.52 168.84 309.186 167 309.186 165.08V165C309.186 163.08 309.533 161.24 310.226 159.48C310.92 157.72 311.893 156.187 313.146 154.88C314.4 153.547 315.906 152.493 317.666 151.72C319.426 150.92 321.373 150.52 323.506 150.52C325.64 150.52 327.573 150.907 329.306 151.68C331.066 152.453 332.573 153.507 333.826 154.84C335.08 156.147 336.04 157.68 336.706 159.44C337.4 161.173 337.746 163 337.746 164.92V165C337.746 166.92 337.4 168.76 336.706 170.52C336.013 172.28 335.04 173.827 333.786 175.16C332.533 176.467 331.026 177.52 329.266 178.32C327.506 179.093 325.56 179.48 323.426 179.48ZM323.506 176.56C325.106 176.56 326.573 176.267 327.906 175.68C329.266 175.067 330.426 174.24 331.386 173.2C332.346 172.16 333.093 170.947 333.626 169.56C334.186 168.173 334.466 166.68 334.466 165.08V165C334.466 163.4 334.186 161.907 333.626 160.52C333.093 159.107 332.333 157.88 331.346 156.84C330.36 155.8 329.186 154.973 327.826 154.36C326.493 153.747 325.026 153.44 323.426 153.44C321.826 153.44 320.346 153.747 318.986 154.36C317.653 154.947 316.506 155.76 315.546 156.8C314.586 157.84 313.826 159.053 313.266 160.44C312.733 161.827 312.466 163.32 312.466 164.92V165C312.466 166.6 312.733 168.107 313.266 169.52C313.826 170.907 314.6 172.12 315.586 173.16C316.573 174.2 317.733 175.027 319.066 175.64C320.426 176.253 321.906 176.56 323.506 176.56ZM383.542 179.84L379.822 176.52C378.622 177.453 377.288 178.187 375.822 178.72C374.355 179.227 372.755 179.48 371.022 179.48C368.888 179.48 366.942 179.093 365.182 178.32C363.448 177.547 361.955 176.507 360.702 175.2C359.448 173.867 358.475 172.333 357.782 170.6C357.115 168.84 356.782 167 356.782 165.08V165C356.782 163.08 357.128 161.24 357.822 159.48C358.515 157.72 359.488 156.187 360.742 154.88C361.995 153.547 363.502 152.493 365.262 151.72C367.022 150.92 368.968 150.52 371.102 150.52C373.235 150.52 375.168 150.907 376.902 151.68C378.662 152.453 380.168 153.507 381.422 154.84C382.675 156.147 383.635 157.68 384.302 159.44C384.995 161.173 385.342 163 385.342 164.92V165C385.342 166.76 385.048 168.44 384.462 170.04C383.875 171.64 383.062 173.08 382.022 174.36L385.702 177.48L383.542 179.84ZM371.102 176.56C372.355 176.56 373.528 176.387 374.622 176.04C375.715 175.667 376.702 175.147 377.582 174.48L372.342 170L374.462 167.64L379.702 172.4C380.475 171.387 381.062 170.267 381.462 169.04C381.862 167.813 382.062 166.493 382.062 165.08V165C382.062 163.4 381.782 161.907 381.222 160.52C380.688 159.107 379.928 157.88 378.942 156.84C377.955 155.8 376.782 154.973 375.422 154.36C374.088 153.747 372.622 153.44 371.022 153.44C369.422 153.44 367.942 153.747 366.582 154.36C365.248 154.947 364.102 155.76 363.142 156.8C362.182 157.84 361.422 159.053 360.862 160.44C360.328 161.827 360.062 163.32 360.062 164.92V165C360.062 166.6 360.328 168.107 360.862 169.52C361.422 170.907 362.195 172.12 363.182 173.16C364.168 174.2 365.328 175.027 366.662 175.64C368.022 176.253 369.502 176.56 371.102 176.56ZM404.406 179.44C402.673 179.44 401.086 179.187 399.646 178.68C398.233 178.147 397.006 177.373 395.966 176.36C394.953 175.32 394.166 174.04 393.606 172.52C393.046 171 392.766 169.253 392.766 167.28V151H395.926V167.08C395.926 170.12 396.686 172.453 398.206 174.08C399.726 175.707 401.819 176.52 404.486 176.52C407.073 176.52 409.126 175.747 410.646 174.2C412.166 172.653 412.926 170.347 412.926 167.28V151H416.086V167.04C416.086 169.093 415.806 170.893 415.246 172.44C414.686 173.987 413.886 175.28 412.846 176.32C411.833 177.36 410.606 178.147 409.166 178.68C407.753 179.187 406.166 179.44 404.406 179.44ZM424.758 151H444.998V153.88H427.918V163.44H443.198V166.32H427.918V176.12H445.198V179H424.758V151ZM465.947 151H486.067V153.92H469.107V163.92H484.267V166.8H469.107V179H465.947V151ZM503.757 150.8H506.717L519.477 179H516.077L512.797 171.6H497.557L494.237 179H490.997L503.757 150.8ZM511.557 168.72L505.197 154.48L498.797 168.72H511.557ZM524.918 176.88L543.038 153.84H525.518V151H547.358V153.12L529.198 176.16H547.358V179H524.918V176.88Z" fill="white"/>
<rect x="408.5" y="4.5" width="196" height="45" rx="8.5" fill="white" stroke="white" stroke-width="3"/>
<path d="M94.1397 11H97.0997L114.74 33.44V11H117.82V39H115.3L97.2197 16.04V39H94.1397V11ZM138.741 39.48C136.608 39.48 134.661 39.0933 132.901 38.32C131.168 37.5467 129.675 36.5067 128.421 35.2C127.168 33.8667 126.195 32.3333 125.501 30.6C124.835 28.84 124.501 27 124.501 25.08V25C124.501 23.08 124.848 21.24 125.541 19.48C126.235 17.72 127.208 16.1867 128.461 14.88C129.715 13.5467 131.221 12.4933 132.981 11.72C134.741 10.92 136.688 10.52 138.821 10.52C140.955 10.52 142.888 10.9067 144.621 11.68C146.381 12.4533 147.888 13.5067 149.141 14.84C150.395 16.1467 151.355 17.68 152.021 19.44C152.715 21.1733 153.061 23 153.061 24.92V25C153.061 26.92 152.715 28.76 152.021 30.52C151.328 32.28 150.355 33.8267 149.101 35.16C147.848 36.4667 146.341 37.52 144.581 38.32C142.821 39.0933 140.875 39.48 138.741 39.48ZM138.821 36.56C140.421 36.56 141.888 36.2667 143.221 35.68C144.581 35.0667 145.741 34.24 146.701 33.2C147.661 32.16 148.408 30.9467 148.941 29.56C149.501 28.1733 149.781 26.68 149.781 25.08V25C149.781 23.4 149.501 21.9067 148.941 20.52C148.408 19.1067 147.648 17.88 146.661 16.84C145.675 15.8 144.501 14.9733 143.141 14.36C141.808 13.7467 140.341 13.44 138.741 13.44C137.141 13.44 135.661 13.7467 134.301 14.36C132.968 14.9467 131.821 15.76 130.861 16.8C129.901 17.84 129.141 19.0533 128.581 20.44C128.048 21.8267 127.781 23.32 127.781 24.92V25C127.781 26.6 128.048 28.1067 128.581 29.52C129.141 30.9067 129.915 32.12 130.901 33.16C131.888 34.2 133.048 35.0267 134.381 35.64C135.741 36.2533 137.221 36.56 138.821 36.56ZM155.685 11H159.205L169.165 35.12L179.165 11H182.565L170.525 39.2H167.725L155.685 11ZM199.444 39.48C197.311 39.48 195.364 39.0933 193.604 38.32C191.871 37.5467 190.378 36.5067 189.124 35.2C187.871 33.8667 186.898 32.3333 186.204 30.6C185.538 28.84 185.204 27 185.204 25.08V25C185.204 23.08 185.551 21.24 186.244 19.48C186.938 17.72 187.911 16.1867 189.164 14.88C190.418 13.5467 191.924 12.4933 193.684 11.72C195.444 10.92 197.391 10.52 199.524 10.52C201.658 10.52 203.591 10.9067 205.324 11.68C207.084 12.4533 208.591 13.5067 209.844 14.84C211.098 16.1467 212.058 17.68 212.724 19.44C213.418 21.1733 213.764 23 213.764 24.92V25C213.764 26.92 213.418 28.76 212.724 30.52C212.031 32.28 211.058 33.8267 209.804 35.16C208.551 36.4667 207.044 37.52 205.284 38.32C203.524 39.0933 201.578 39.48 199.444 39.48ZM199.524 36.56C201.124 36.56 202.591 36.2667 203.924 35.68C205.284 35.0667 206.444 34.24 207.404 33.2C208.364 32.16 209.111 30.9467 209.644 29.56C210.204 28.1733 210.484 26.68 210.484 25.08V25C210.484 23.4 210.204 21.9067 209.644 20.52C209.111 19.1067 208.351 17.88 207.364 16.84C206.378 15.8 205.204 14.9733 203.844 14.36C202.511 13.7467 201.044 13.44 199.444 13.44C197.844 13.44 196.364 13.7467 195.004 14.36C193.671 14.9467 192.524 15.76 191.564 16.8C190.604 17.84 189.844 19.0533 189.284 20.44C188.751 21.8267 188.484 23.32 188.484 24.92V25C188.484 26.6 188.751 28.1067 189.284 29.52C189.844 30.9067 190.618 32.12 191.604 33.16C192.591 34.2 193.751 35.0267 195.084 35.64C196.444 36.2533 197.924 36.56 199.524 36.56ZM245.221 39.48C243.194 39.48 241.328 39.1067 239.621 38.36C237.914 37.6133 236.434 36.6 235.181 35.32C233.928 34.0133 232.941 32.48 232.221 30.72C231.528 28.96 231.181 27.08 231.181 25.08V25C231.181 23.0267 231.528 21.16 232.221 19.4C232.941 17.64 233.928 16.1067 235.181 14.8C236.434 13.4667 237.928 12.4267 239.661 11.68C241.394 10.9067 243.288 10.52 245.341 10.52C246.621 10.52 247.768 10.6267 248.781 10.84C249.821 11.0533 250.781 11.36 251.661 11.76C252.541 12.1333 253.354 12.6 254.101 13.16C254.848 13.6933 255.568 14.2933 256.261 14.96L254.101 17.28C252.901 16.16 251.608 15.24 250.221 14.52C248.861 13.8 247.221 13.44 245.301 13.44C243.754 13.44 242.314 13.7333 240.981 14.32C239.674 14.9067 238.528 15.72 237.541 16.76C236.581 17.8 235.821 19.0267 235.261 20.44C234.728 21.8267 234.461 23.32 234.461 24.92V25C234.461 26.6267 234.728 28.1467 235.261 29.56C235.821 30.9467 236.581 32.16 237.541 33.2C238.528 34.24 239.674 35.0667 240.981 35.68C242.314 36.2667 243.754 36.56 245.301 36.56C247.221 36.56 248.874 36.2133 250.261 35.52C251.648 34.8 253.008 33.8 254.341 32.52L256.421 34.56C255.701 35.3067 254.941 35.9867 254.141 36.6C253.368 37.1867 252.528 37.6933 251.621 38.12C250.714 38.5467 249.741 38.88 248.701 39.12C247.661 39.36 246.501 39.48 245.221 39.48ZM273.152 39.44C271.419 39.44 269.832 39.1867 268.392 38.68C266.979 38.1467 265.752 37.3733 264.712 36.36C263.699 35.32 262.912 34.04 262.352 32.52C261.792 31 261.512 29.2533 261.512 27.28V11H264.672V27.08C264.672 30.12 265.432 32.4533 266.952 34.08C268.472 35.7067 270.566 36.52 273.232 36.52C275.819 36.52 277.872 35.7467 279.392 34.2C280.912 32.6533 281.672 30.3467 281.672 27.28V11H284.832V27.04C284.832 29.0933 284.552 30.8933 283.992 32.44C283.432 33.9867 282.632 35.28 281.592 36.32C280.579 37.36 279.352 38.1467 277.912 38.68C276.499 39.1867 274.912 39.44 273.152 39.44ZM292.304 11H304.344C306.077 11 307.61 11.2533 308.944 11.76C310.304 12.24 311.424 12.92 312.304 13.8C312.997 14.4933 313.53 15.3067 313.904 16.24C314.277 17.1733 314.464 18.2 314.464 19.32V19.4C314.464 20.5733 314.277 21.6267 313.904 22.56C313.53 23.4667 312.997 24.2667 312.304 24.96C311.637 25.6267 310.837 26.1867 309.904 26.64C308.97 27.0667 307.957 27.3733 306.864 27.56L315.464 39H311.584L303.464 28.12H295.464V39H292.304V11ZM304.064 25.28C305.104 25.28 306.064 25.1467 306.944 24.88C307.824 24.6133 308.584 24.24 309.224 23.76C309.864 23.2533 310.357 22.6533 310.704 21.96C311.077 21.24 311.264 20.4267 311.264 19.52V19.44C311.264 17.7067 310.637 16.36 309.384 15.4C308.13 14.4133 306.37 13.92 304.104 13.92H295.464V25.28H304.064ZM330.81 39.4C328.57 39.4 326.517 39.04 324.65 38.32C322.81 37.5733 321.05 36.44 319.37 34.92L321.33 32.6C322.797 33.9333 324.277 34.9333 325.77 35.6C327.263 36.24 328.983 36.56 330.93 36.56C332.823 36.56 334.33 36.12 335.45 35.24C336.597 34.3333 337.17 33.1867 337.17 31.8V31.72C337.17 31.08 337.063 30.5067 336.85 30C336.637 29.4667 336.263 28.9867 335.73 28.56C335.197 28.1333 334.45 27.7467 333.49 27.4C332.557 27.0533 331.357 26.72 329.89 26.4C328.29 26.0533 326.89 25.6533 325.69 25.2C324.517 24.7467 323.543 24.2 322.77 23.56C321.997 22.92 321.423 22.1733 321.05 21.32C320.677 20.4667 320.49 19.4667 320.49 18.32V18.24C320.49 17.1467 320.717 16.1333 321.17 15.2C321.623 14.2667 322.263 13.4667 323.09 12.8C323.917 12.1067 324.89 11.5733 326.01 11.2C327.13 10.8 328.357 10.6 329.69 10.6C331.743 10.6 333.53 10.8933 335.05 11.48C336.597 12.04 338.09 12.8933 339.53 14.04L337.69 16.48C336.383 15.4133 335.063 14.64 333.73 14.16C332.423 13.68 331.05 13.44 329.61 13.44C327.77 13.44 326.317 13.88 325.25 14.76C324.183 15.6133 323.65 16.68 323.65 17.96V18.04C323.65 18.7067 323.757 19.3067 323.97 19.84C324.183 20.3467 324.57 20.8267 325.13 21.28C325.69 21.7067 326.463 22.1067 327.45 22.48C328.437 22.8267 329.703 23.16 331.25 23.48C334.37 24.1733 336.663 25.1333 338.13 26.36C339.623 27.5867 340.37 29.2667 340.37 31.4V31.48C340.37 32.68 340.13 33.7733 339.65 34.76C339.17 35.72 338.503 36.5467 337.65 37.24C336.823 37.9333 335.823 38.4667 334.65 38.84C333.477 39.2133 332.197 39.4 330.81 39.4ZM359.796 39.48C357.663 39.48 355.716 39.0933 353.956 38.32C352.223 37.5467 350.729 36.5067 349.476 35.2C348.223 33.8667 347.249 32.3333 346.556 30.6C345.889 28.84 345.556 27 345.556 25.08V25C345.556 23.08 345.903 21.24 346.596 19.48C347.289 17.72 348.263 16.1867 349.516 14.88C350.769 13.5467 352.276 12.4933 354.036 11.72C355.796 10.92 357.743 10.52 359.876 10.52C362.009 10.52 363.943 10.9067 365.676 11.68C367.436 12.4533 368.943 13.5067 370.196 14.84C371.449 16.1467 372.409 17.68 373.076 19.44C373.769 21.1733 374.116 23 374.116 24.92V25C374.116 26.92 373.769 28.76 373.076 30.52C372.383 32.28 371.409 33.8267 370.156 35.16C368.903 36.4667 367.396 37.52 365.636 38.32C363.876 39.0933 361.929 39.48 359.796 39.48ZM359.876 36.56C361.476 36.56 362.943 36.2667 364.276 35.68C365.636 35.0667 366.796 34.24 367.756 33.2C368.716 32.16 369.463 30.9467 369.996 29.56C370.556 28.1733 370.836 26.68 370.836 25.08V25C370.836 23.4 370.556 21.9067 369.996 20.52C369.463 19.1067 368.703 17.88 367.716 16.84C366.729 15.8 365.556 14.9733 364.196 14.36C362.863 13.7467 361.396 13.44 359.796 13.44C358.196 13.44 356.716 13.7467 355.356 14.36C354.023 14.9467 352.876 15.76 351.916 16.8C350.956 17.84 350.196 19.0533 349.636 20.44C349.103 21.8267 348.836 23.32 348.836 24.92V25C348.836 26.6 349.103 28.1067 349.636 29.52C350.196 30.9067 350.969 32.12 351.956 33.16C352.943 34.2 354.103 35.0267 355.436 35.64C356.796 36.2533 358.276 36.56 359.876 36.56Z" fill="white"/>
<path d="M425.529 13.5H444.184V18.4H430.919V23.615H442.609V28.515H430.919V38H425.529V13.5ZM460.293 38.42C458.379 38.42 456.629 38.105 455.043 37.475C453.479 36.845 452.126 35.97 450.983 34.85C449.863 33.73 448.988 32.4 448.358 30.86C447.728 29.32 447.413 27.64 447.413 25.82V25.75C447.413 24 447.728 22.3667 448.358 20.85C449.011 19.31 449.909 17.9683 451.053 16.825C452.196 15.6583 453.549 14.7483 455.113 14.095C456.676 13.4183 458.391 13.08 460.258 13.08C461.354 13.08 462.346 13.1617 463.233 13.325C464.143 13.465 464.983 13.675 465.753 13.955C466.523 14.235 467.246 14.585 467.923 15.005C468.599 15.425 469.253 15.9033 469.883 16.44L466.488 20.535C466.021 20.1383 465.554 19.7883 465.088 19.485C464.621 19.1817 464.131 18.925 463.618 18.715C463.128 18.505 462.591 18.3417 462.008 18.225C461.424 18.1083 460.783 18.05 460.083 18.05C459.103 18.05 458.181 18.26 457.318 18.68C456.478 19.0767 455.731 19.625 455.078 20.325C454.448 21.0017 453.946 21.8067 453.573 22.74C453.223 23.65 453.048 24.63 453.048 25.68V25.75C453.048 26.87 453.223 27.9083 453.573 28.865C453.946 29.7983 454.459 30.615 455.113 31.315C455.789 32.015 456.571 32.5633 457.458 32.96C458.368 33.3333 459.371 33.52 460.468 33.52C462.474 33.52 464.166 33.03 465.543 32.05V28.55H460.118V23.895H470.758V34.535C469.498 35.6083 467.993 36.53 466.243 37.3C464.516 38.0467 462.533 38.42 460.293 38.42ZM472.955 13.5H478.905L485.31 30.755L491.715 13.5H497.525L487.62 38.175H482.86L472.955 13.5ZM510.226 13.5H515.616V33.1H527.831V38H510.226V13.5ZM532.141 13.5H537.531V38H532.141V13.5ZM541.554 13.5H547.504L553.909 30.755L560.314 13.5H566.124L556.219 38.175H551.459L541.554 13.5ZM569.904 13.5H588.384V18.295H575.259V23.265H586.809V28.06H575.259V33.205H588.559V38H569.904V13.5Z" fill="#314486"/>
</svg>
